<svg width="34" height="34" viewBox="0 0 34 34" fill="none" xmlns="http://www.w3.org/2000/svg">
<path fill-rule="evenodd" clip-rule="evenodd" d="M12.7574 11.3431C12.3668 10.9526 11.7337 10.9526 11.3431 11.3431C10.9526 11.7337 10.9526 12.3668 11.3431 12.7574L15.5858 17L11.3431 21.2426C10.9526 21.6332 10.9526 22.2663 11.3431 22.6569C11.7337 23.0474 12.3668 23.0474 12.7574 22.6569L17 18.4142L21.2426 22.6569C21.6332 23.0474 22.2663 23.0474 22.6568 22.6569C23.0474 22.2663 23.0474 21.6332 22.6568 21.2426L18.4142 17L22.6568 12.7574C23.0474 12.3668 23.0474 11.7337 22.6568 11.3431C22.2663 10.9526 21.6332 10.9526 21.2426 11.3431L17 15.5858L12.7574 11.3431Z" fill="#010F07"/>
</svg>
