<svg width="16" height="16" viewBox="0 0 16 16" fill="none" xmlns="http://www.w3.org/2000/svg">
<path fill-rule="evenodd" clip-rule="evenodd" d="M10.6667 12C8.45757 12 6.66671 10.2091 6.66671 8C6.66671 5.79086 8.45757 4 10.6667 4C12.8758 4 14.6667 5.79086 14.6667 8C14.6667 10.2091 12.8758 12 10.6667 12ZM10.6503 5.55556H10.6878C10.802 5.55556 10.8976 5.64207 10.9089 5.75567L11.1111 7.77778L12.5547 8.60269C12.624 8.64225 12.6667 8.71588 12.6667 8.79563V8.88889C12.6667 8.98263 12.5907 9.05862 12.497 9.05862C12.4819 9.05862 12.4669 9.05661 12.4523 9.05264L10.3994 8.49277C10.2966 8.46472 10.2282 8.36761 10.2363 8.26133L10.4287 5.76074C10.4376 5.64496 10.5341 5.55556 10.6503 5.55556ZM5.11115 4.88889H2.88893C2.52074 4.88889 2.22226 5.18737 2.22226 5.55556C2.22226 5.92375 2.52074 6.22222 2.88893 6.22222H5.11115C5.47934 6.22222 5.77781 5.92375 5.77781 5.55556C5.77781 5.18737 5.47934 4.88889 5.11115 4.88889ZM5.11115 10.2222H2.88893C2.52074 10.2222 2.22226 10.5207 2.22226 10.8889C2.22226 11.2571 2.52074 11.5556 2.88893 11.5556H5.11115C5.47934 11.5556 5.77781 11.2571 5.77781 10.8889C5.77781 10.5207 5.47934 10.2222 5.11115 10.2222ZM2.00004 7.55556H3.77782C4.14601 7.55556 4.44449 7.85403 4.44449 8.22222C4.44449 8.59041 4.14601 8.88889 3.77782 8.88889H2.00004C1.63185 8.88889 1.33337 8.59041 1.33337 8.22222C1.33337 7.85403 1.63185 7.55556 2.00004 7.55556Z" fill="white"/>
</svg>
