<svg width="34" height="34" viewBox="0 0 34 34" fill="none" xmlns="http://www.w3.org/2000/svg">
<path fill-rule="evenodd" clip-rule="evenodd" d="M11.4502 12.5025L11 8H10V12.5C10 14.433 11.567 16 13.5 16C15.433 16 17 14.433 17 12.5V8H16L15.5498 12.5025C15.5215 12.7849 15.2838 13 15 13C14.7162 13 14.4785 12.7849 14.4502 12.5025L14 8H13L12.5498 12.5025C12.5215 12.7849 12.2838 13 12 13C11.7162 13 11.4785 12.7849 11.4502 12.5025ZM14.5555 18.9985C14.5243 18.4383 14.061 18 13.5 18C12.939 18 12.4757 18.4383 12.4445 18.9985L12.0832 25.5023C12.0817 25.5285 12.081 25.5548 12.081 25.581C12.081 26.3647 12.7163 27 13.5 27C13.5263 27 13.5525 26.9993 13.5787 26.9978C14.3612 26.9543 14.9603 26.2848 14.9168 25.5023L14.5555 18.9985ZM22.5 20C23.0634 20 23.5311 20.4354 23.5712 20.9975L23.8931 25.5038C23.9481 26.2732 23.3689 26.9415 22.5995 26.9965C22.5664 26.9988 22.5332 27 22.5 27C21.7286 27 21.1033 26.3747 21.1033 25.6033C21.1033 25.5701 21.1045 25.5369 21.1069 25.5038L21.4288 20.9975C21.4689 20.4354 21.9366 20 22.5 20ZM24 18V8C21.7909 8 20 9.79086 20 12V18H24Z" fill="#EEA734"/>
</svg>
