<svg width="308" height="363" viewBox="0 0 308 363" fill="none" xmlns="http://www.w3.org/2000/svg">
<path fill-rule="evenodd" clip-rule="evenodd" d="M156.102 362.44C238.669 362.44 305.602 295.507 305.602 212.94C305.602 130.374 238.669 63.4405 156.102 63.4405C73.5354 63.4405 6.60199 130.374 6.60199 212.94C6.60199 295.507 73.5354 362.44 156.102 362.44Z" fill="#F1EFDD"/>
<mask id="mask0_4_338" style="mask-type:luminance" maskUnits="userSpaceOnUse" x="6" y="63" width="300" height="300">
<path fill-rule="evenodd" clip-rule="evenodd" d="M156.102 362.44C238.669 362.44 305.602 295.507 305.602 212.94C305.602 130.374 238.669 63.4405 156.102 63.4405C73.5354 63.4405 6.60199 130.374 6.60199 212.94C6.60199 295.507 73.5354 362.44 156.102 362.44Z" fill="white"/>
</mask>
<g mask="url(#mask0_4_338)">
<path d="M264.502 323.64C259.702 328.44 252.702 333.94 246.402 337.64C245.902 337.94 245.402 338.24 244.902 338.54C239.202 341.74 232.602 345.14 230.802 343.34C227.602 340.14 237.102 325.24 245.302 315.34C245.702 314.84 246.002 314.44 246.402 314.04C247.802 312.44 249.102 310.94 250.402 309.64C260.102 299.94 263.602 302.64 267.502 306.54C271.002 310.04 273.602 313.44 266.602 321.34C266.202 321.74 265.802 322.14 265.402 322.64C265.202 323.04 264.802 323.34 264.502 323.64Z" fill="#FF7B65"/>
<path d="M278.102 305.54C276.602 304.64 274.902 304.24 273.302 304.24C274.102 302.84 274.602 301.14 274.602 299.44C272.902 299.44 271.302 299.84 269.902 300.64C269.902 299.04 269.502 297.44 268.602 295.94C265.202 297.84 263.302 301.54 263.602 305.24C263.702 306.44 264.802 309.14 264.902 309.34C265.002 309.44 267.702 310.54 269.002 310.64C272.502 310.84 276.202 309.04 278.102 305.54Z" fill="#22A45D"/>
<path d="M265.502 322.64L259.102 316.24C258.802 315.94 258.802 315.34 259.102 315.04C259.402 314.74 260.002 314.74 260.302 315.04L266.602 321.34C266.302 321.84 265.902 322.24 265.502 322.64Z" fill="#F2F2F2"/>
<path d="M246.402 337.64C245.902 337.94 245.402 338.24 244.902 338.54L240.902 334.54C240.602 334.24 240.602 333.64 240.902 333.34C241.202 333.04 241.802 333.04 242.102 333.34L246.402 337.64Z" fill="#F2F2F2"/>
<path d="M254.702 323.641C254.402 323.941 253.802 323.941 253.502 323.641L245.302 315.441C245.702 314.941 246.002 314.541 246.402 314.141L254.802 322.541C255.102 322.741 255.102 323.241 254.702 323.641Z" fill="#F2F2F2"/>
<path d="M159.402 140.94V155.04C189.702 155.04 214.302 179.64 214.302 209.64H228.402C228.102 171.84 197.202 140.94 159.402 140.94Z" fill="#F8B64C"/>
<path d="M221.802 216.24C221.802 254.34 190.902 284.94 153.102 284.94C115.002 284.94 84.402 254.04 84.402 216.24C84.402 178.14 115.302 147.54 153.102 147.54V161.64C122.802 161.64 98.502 186.24 98.502 216.24C98.502 246.54 123.102 271.14 153.102 271.14C183.402 271.14 208.002 246.54 208.002 216.24H221.802Z" fill="#F8B64C"/>
<path d="M214.002 209.64C214.002 179.34 189.402 155.04 159.102 155.04V209.64H214.002Z" fill="#FFD15C"/>
<path d="M207.702 216.241C207.702 246.54 183.102 271.141 152.802 271.141C122.502 271.141 98.202 246.54 98.202 216.241C98.202 185.941 122.802 161.641 152.802 161.641V216.241H207.702Z" fill="#FFD15C"/>
<path d="M182.502 251.34C187.97 251.34 192.402 246.908 192.402 241.44C192.402 235.973 187.97 231.54 182.502 231.54C177.034 231.54 172.602 235.973 172.602 241.44C172.602 246.908 177.034 251.34 182.502 251.34Z" fill="#FF7B65"/>
<path d="M182.502 236.64C183.496 236.64 184.302 235.835 184.302 234.84C184.302 233.846 183.496 233.04 182.502 233.04C181.508 233.04 180.702 233.846 180.702 234.84C180.702 235.835 181.508 236.64 182.502 236.64Z" fill="#E76A56"/>
<path d="M182.502 250.14C183.496 250.14 184.302 249.335 184.302 248.34C184.302 247.346 183.496 246.54 182.502 246.54C181.508 246.54 180.702 247.346 180.702 248.34C180.702 249.335 181.508 250.14 182.502 250.14Z" fill="#E76A56"/>
<path d="M188.535 237.931C189.238 237.227 189.238 236.088 188.535 235.385C187.832 234.682 186.692 234.682 185.989 235.385C185.286 236.088 185.287 237.228 185.99 237.931C186.693 238.634 187.832 238.634 188.535 237.931Z" fill="#E76A56"/>
<path d="M178.883 247.521C179.586 246.818 179.586 245.678 178.883 244.975C178.18 244.272 177.041 244.272 176.338 244.975C175.635 245.678 175.635 246.818 176.338 247.521C177.041 248.224 178.18 248.224 178.883 247.521Z" fill="#E76A56"/>
<path d="M189.402 243.24C190.396 243.24 191.202 242.435 191.202 241.44C191.202 240.446 190.396 239.64 189.402 239.64C188.408 239.64 187.602 240.446 187.602 241.44C187.602 242.435 188.408 243.24 189.402 243.24Z" fill="#E76A56"/>
<path d="M175.602 243.24C176.596 243.24 177.402 242.435 177.402 241.44C177.402 240.446 176.596 239.64 175.602 239.64C174.608 239.64 173.802 240.446 173.802 241.44C173.802 242.435 174.608 243.24 175.602 243.24Z" fill="#E76A56"/>
<path d="M188.499 247.541C189.202 246.838 189.202 245.698 188.499 244.995C187.796 244.293 186.656 244.293 185.953 244.995C185.251 245.698 185.251 246.838 185.953 247.541C186.656 248.244 187.796 248.244 188.499 247.541Z" fill="#E76A56"/>
<path d="M178.92 237.902C179.623 237.199 179.623 236.059 178.92 235.356C178.217 234.653 177.078 234.653 176.375 235.356C175.672 236.059 175.671 237.198 176.374 237.901C177.077 238.604 178.217 238.605 178.92 237.902Z" fill="#E76A56"/>
<path d="M119.502 221.34C124.97 221.34 129.402 216.908 129.402 211.44C129.402 205.973 124.97 201.54 119.502 201.54C114.034 201.54 109.602 205.973 109.602 211.44C109.602 216.908 114.034 221.34 119.502 221.34Z" fill="#FF7B65"/>
<path d="M119.502 206.64C120.496 206.64 121.302 205.835 121.302 204.84C121.302 203.846 120.496 203.04 119.502 203.04C118.508 203.04 117.702 203.846 117.702 204.84C117.702 205.835 118.508 206.64 119.502 206.64Z" fill="#E76A56"/>
<path d="M119.502 220.14C120.496 220.14 121.302 219.335 121.302 218.34C121.302 217.346 120.496 216.54 119.502 216.54C118.508 216.54 117.702 217.346 117.702 218.34C117.702 219.335 118.508 220.14 119.502 220.14Z" fill="#E76A56"/>
<path d="M125.535 207.931C126.238 207.227 126.238 206.088 125.535 205.385C124.832 204.682 123.692 204.682 122.989 205.385C122.286 206.088 122.287 207.228 122.99 207.931C123.693 208.634 124.832 208.634 125.535 207.931Z" fill="#E76A56"/>
<path d="M115.883 217.521C116.586 216.818 116.586 215.678 115.883 214.975C115.18 214.272 114.041 214.272 113.338 214.975C112.635 215.678 112.635 216.818 113.338 217.521C114.041 218.224 115.18 218.224 115.883 217.521Z" fill="#E76A56"/>
<path d="M126.402 213.24C127.396 213.24 128.202 212.435 128.202 211.44C128.202 210.446 127.396 209.64 126.402 209.64C125.408 209.64 124.602 210.446 124.602 211.44C124.602 212.435 125.408 213.24 126.402 213.24Z" fill="#E76A56"/>
<path d="M112.602 213.24C113.596 213.24 114.402 212.435 114.402 211.44C114.402 210.446 113.596 209.64 112.602 209.64C111.608 209.64 110.802 210.446 110.802 211.44C110.802 212.435 111.608 213.24 112.602 213.24Z" fill="#E76A56"/>
<path d="M125.499 217.541C126.202 216.838 126.202 215.698 125.499 214.995C124.796 214.293 123.656 214.293 122.953 214.995C122.251 215.698 122.251 216.838 122.953 217.541C123.656 218.244 124.796 218.244 125.499 217.541Z" fill="#E76A56"/>
<path d="M115.92 207.902C116.623 207.199 116.623 206.059 115.92 205.356C115.217 204.653 114.078 204.653 113.375 205.356C112.672 206.059 112.671 207.198 113.374 207.901C114.077 208.604 115.217 208.605 115.92 207.902Z" fill="#E76A56"/>
<path fill-rule="evenodd" clip-rule="evenodd" d="M139.002 177.841C139.302 178.141 139.902 178.441 140.502 178.441C141.102 178.441 142.002 178.141 143.202 177.241C145.002 178.741 146.502 178.741 147.402 177.841C148.302 176.941 148.302 175.441 146.802 173.641C148.302 171.841 148.302 170.341 147.402 169.441C146.502 168.541 145.002 168.541 143.202 170.041C141.402 168.541 139.902 168.541 139.002 169.441C138.102 170.341 138.102 171.841 139.602 173.641C138.102 175.441 138.102 176.941 139.002 177.841ZM139.602 170.341C139.902 170.041 140.202 170.041 140.502 170.041C141.102 170.041 141.702 170.341 142.602 170.941L142.902 171.541L143.202 171.241C144.402 170.041 145.602 169.741 146.202 170.341C146.802 170.641 146.502 171.841 145.302 173.341L145.002 173.641L145.302 173.941C146.502 175.141 146.802 176.341 146.202 176.941C145.902 177.541 144.702 177.241 143.202 176.041L142.902 175.741L142.602 176.041C141.402 177.241 140.202 177.541 139.602 176.941C139.002 176.641 139.302 175.441 140.502 173.941L140.802 173.641L140.502 173.341C139.302 172.141 139.002 170.941 139.602 170.341Z" fill="#FF7B65"/>
<path d="M122.802 187.44C124.293 187.44 125.502 186.232 125.502 184.74C125.502 183.249 124.293 182.04 122.802 182.04C121.311 182.04 120.102 183.249 120.102 184.74C120.102 186.232 121.311 187.44 122.802 187.44Z" fill="#40596B"/>
<path d="M123.702 184.74C124.199 184.74 124.602 184.338 124.602 183.84C124.602 183.343 124.199 182.94 123.702 182.94C123.205 182.94 122.802 183.343 122.802 183.84C122.802 184.338 123.205 184.74 123.702 184.74Z" fill="white"/>
<path d="M140.202 239.34C141.693 239.34 142.902 238.132 142.902 236.64C142.902 235.149 141.693 233.94 140.202 233.94C138.711 233.94 137.502 235.149 137.502 236.64C137.502 238.132 138.711 239.34 140.202 239.34Z" fill="#40596B"/>
<path d="M140.802 236.641C141.299 236.641 141.702 236.238 141.702 235.741C141.702 235.243 141.299 234.841 140.802 234.841C140.305 234.841 139.902 235.243 139.902 235.741C139.902 236.238 140.305 236.641 140.802 236.641Z" fill="white"/>
<path d="M197.802 225.241C199.293 225.241 200.502 224.032 200.502 222.541C200.502 221.049 199.293 219.841 197.802 219.841C196.311 219.841 195.102 221.049 195.102 222.541C195.102 224.032 196.311 225.241 197.802 225.241Z" fill="#40596B"/>
<path d="M198.702 222.24C199.199 222.24 199.602 221.838 199.602 221.34C199.602 220.843 199.199 220.44 198.702 220.44C198.205 220.44 197.802 220.843 197.802 221.34C197.802 221.838 198.205 222.24 198.702 222.24Z" fill="white"/>
<path d="M198.102 182.94C199.593 182.94 200.802 181.732 200.802 180.24C200.802 178.749 199.593 177.54 198.102 177.54C196.611 177.54 195.402 178.749 195.402 180.24C195.402 181.732 196.611 182.94 198.102 182.94Z" fill="#40596B"/>
<path d="M199.002 180.24C199.499 180.24 199.902 179.838 199.902 179.34C199.902 178.843 199.499 178.44 199.002 178.44C198.505 178.44 198.102 178.843 198.102 179.34C198.102 179.838 198.505 180.24 199.002 180.24Z" fill="white"/>
<path d="M167.202 254.34C168.693 254.34 169.902 253.132 169.902 251.64C169.902 250.149 168.693 248.94 167.202 248.94C165.711 248.94 164.502 250.149 164.502 251.64C164.502 253.132 165.711 254.34 167.202 254.34Z" fill="#40596B"/>
<path d="M167.802 251.34C168.299 251.34 168.702 250.938 168.702 250.44C168.702 249.943 168.299 249.54 167.802 249.54C167.305 249.54 166.902 249.943 166.902 250.44C166.902 250.938 167.305 251.34 167.802 251.34Z" fill="white"/>
<path d="M140.202 199.74C142.687 199.74 144.702 197.726 144.702 195.24C144.702 192.755 142.687 190.74 140.202 190.74C137.717 190.74 135.702 192.755 135.702 195.24C135.702 197.726 137.717 199.74 140.202 199.74Z" fill="white"/>
<path d="M156.402 234.54C158.202 233.04 158.502 230.34 157.002 228.24C155.502 226.44 152.802 226.14 150.702 227.64C150.102 228.24 150.402 229.44 151.002 230.64L147.702 233.34L150.102 236.34L153.402 233.64C154.602 234.54 155.802 235.14 156.402 234.54Z" fill="#22A45D"/>
<path fill-rule="evenodd" clip-rule="evenodd" d="M113.802 241.44C113.802 238.14 116.502 235.44 119.802 235.44C123.102 235.44 125.802 238.14 125.802 241.44C125.802 244.74 123.102 247.44 119.802 247.44C116.502 247.44 113.802 244.74 113.802 241.44ZM116.202 241.74C116.202 243.54 117.702 245.34 119.802 245.34C121.902 245.34 123.402 243.54 123.402 241.74C123.402 239.94 121.902 238.14 119.802 238.14C118.002 238.14 116.202 239.64 116.202 241.74Z" fill="#FF7B65"/>
<path d="M180.702 189.841C178.002 187.441 177.402 183.541 179.802 180.841C182.202 178.141 186.102 177.541 188.802 179.941C189.702 180.841 189.402 182.641 188.502 184.441L193.302 188.341L189.702 192.541L184.902 188.641C183.402 189.841 181.602 190.741 180.702 189.841Z" fill="#22A45D"/>
<path fill-rule="evenodd" clip-rule="evenodd" d="M210.102 195.841C210.102 199.141 207.402 201.841 204.102 201.841C200.802 201.841 198.102 199.141 198.102 195.841C198.102 192.541 200.802 189.841 204.102 189.841C207.402 189.841 210.102 192.541 210.102 195.841ZM207.702 195.541C207.702 193.741 206.202 191.941 204.102 191.941C202.002 191.941 200.502 193.441 200.502 195.541C200.502 197.341 202.002 199.141 204.102 199.141C205.902 199.141 207.702 197.641 207.702 195.541Z" fill="#E76A56"/>
<path d="M166.602 205.741C166.602 204.541 167.802 203.641 168.702 203.941C172.602 204.241 175.902 201.241 176.202 197.341C176.202 196.141 177.402 195.241 178.302 195.541C179.502 195.541 180.402 196.741 180.102 197.641C179.802 203.941 174.402 208.441 168.102 208.141C167.202 207.841 166.302 206.941 166.602 205.741Z" fill="#5DBB88"/>
<path d="M141.702 252.841C142.902 252.841 143.802 253.741 143.802 254.641C144.102 258.541 147.402 261.541 151.302 261.241C152.502 261.241 153.402 262.141 153.402 263.041C153.402 264.241 152.502 265.141 151.602 265.141C145.302 265.741 139.902 260.941 139.602 254.941C139.602 254.041 140.502 252.841 141.702 252.841Z" fill="#5DBB88"/>
<path d="M169.902 179.041C173.878 179.041 177.102 175.817 177.102 171.841C177.102 167.864 173.878 164.641 169.902 164.641C165.926 164.641 162.702 167.864 162.702 171.841C162.702 175.817 165.926 179.041 169.902 179.041Z" fill="#F8B64C"/>
</g>
<path d="M264.502 323.64C259.702 328.44 252.702 333.94 246.402 337.64C245.902 337.94 245.402 338.24 244.902 338.54C239.202 341.74 232.602 345.14 230.802 343.34C227.602 340.14 237.102 325.24 245.302 315.34C245.702 314.84 246.002 314.44 246.402 314.04C247.802 312.44 249.102 310.94 250.402 309.64C260.102 299.94 263.602 302.64 267.502 306.54C271.002 310.04 273.602 313.44 266.602 321.34C266.202 321.74 265.802 322.14 265.402 322.64C265.202 323.04 264.802 323.34 264.502 323.64Z" fill="#FF7B65"/>
<path d="M278.102 305.54C276.602 304.64 274.902 304.24 273.302 304.24C274.102 302.84 274.602 301.14 274.602 299.44C272.902 299.44 271.302 299.84 269.902 300.64C269.902 299.04 269.502 297.44 268.602 295.94C265.202 297.84 263.302 301.54 263.602 305.24C263.702 306.44 264.802 309.14 264.902 309.34C265.002 309.44 267.702 310.54 269.002 310.64C272.502 310.84 276.202 309.04 278.102 305.54Z" fill="#22A45D"/>
<path d="M265.502 322.64L259.102 316.24C258.802 315.94 258.802 315.34 259.102 315.04C259.402 314.74 260.002 314.74 260.302 315.04L266.602 321.34C266.302 321.84 265.902 322.24 265.502 322.64Z" fill="#F2F2F2"/>
<path d="M246.402 337.64C245.902 337.94 245.402 338.24 244.902 338.54L240.902 334.54C240.602 334.24 240.602 333.64 240.902 333.34C241.202 333.04 241.802 333.04 242.102 333.34L246.402 337.64Z" fill="#F2F2F2"/>
<path d="M254.702 323.641C254.402 323.941 253.802 323.941 253.502 323.641L245.302 315.441C245.702 314.941 246.002 314.541 246.402 314.141L254.802 322.541C255.102 322.741 255.102 323.241 254.702 323.641Z" fill="#F2F2F2"/>
<path d="M53.0067 79.7449C61.4067 71.3449 61.4067 57.8449 53.0067 49.4449L22.7067 79.7449C31.1067 88.1449 44.7067 88.1449 53.0067 79.7449Z" fill="#FF7058"/>
<path d="M56.3067 46.2449C66.5067 56.3449 66.5067 72.8449 56.3067 83.0449C46.1067 93.2449 29.6067 93.2449 19.5067 83.0449L18.0067 84.5449C29.0067 95.5449 46.8067 95.5449 57.8067 84.5449C68.8067 73.5449 68.8067 55.7449 57.8067 44.7449L56.3067 46.2449Z" fill="#22A45D"/>
<rect x="19.4753" y="83.0775" width="4.59996" height="0.1" transform="rotate(-45 19.4753 83.0775)" fill="#F2F2F2"/>
<rect x="53.0286" y="49.4586" width="4.59996" height="0.1" transform="rotate(-45 53.0286 49.4586)" fill="#F2F2F2"/>
<path d="M56.3067 83.0449C66.5067 72.8449 66.5067 56.3449 56.3067 46.2449L53.0067 49.5449C61.4067 57.9449 61.4067 71.4449 53.0067 79.8449C44.6067 88.2449 31.1067 88.2449 22.7067 79.8449L19.5067 83.0449C29.6067 93.2449 46.1067 93.2449 56.3067 83.0449Z" fill="#F2F2F2"/>
<path d="M50.1704 59.8658C50.7562 59.28 50.7562 58.3303 50.1704 57.7445C49.5846 57.1587 48.6349 57.1587 48.0491 57.7445C47.4633 58.3303 47.4633 59.28 48.0491 59.8658C48.6349 60.4516 49.5846 60.4516 50.1704 59.8658Z" fill="white"/>
<path d="M41.6815 68.3703C42.2673 67.7846 42.2673 66.8348 41.6815 66.249C41.0957 65.6633 40.146 65.6633 39.5602 66.249C38.9744 66.8348 38.9744 67.7846 39.5602 68.3703C40.146 68.9561 41.0957 68.9561 41.6815 68.3703Z" fill="white"/>
<path d="M33.1926 76.8749C33.7784 76.2891 33.7784 75.3393 33.1926 74.7536C32.6069 74.1678 31.6571 74.1678 31.0713 74.7536C30.4856 75.3393 30.4856 76.2891 31.0713 76.8749C31.6571 77.4606 32.6069 77.4606 33.1926 76.8749Z" fill="white"/>
<path d="M49.767 67.9897C50.3528 67.4039 50.3528 66.4541 49.767 65.8684C49.1812 65.2826 48.2315 65.2826 47.6457 65.8684C47.0599 66.4541 47.0599 67.4039 47.6457 67.9897C48.2315 68.5754 49.1812 68.5754 49.767 67.9897Z" fill="white"/>
<path d="M41.2781 76.4942C41.8639 75.9084 41.8639 74.9587 41.2781 74.3729C40.6923 73.7871 39.7426 73.7871 39.1568 74.3729C38.571 74.9587 38.571 75.9084 39.1568 76.4942C39.7426 77.08 40.6923 77.08 41.2781 76.4942Z" fill="white"/>
<path d="M49.3635 76.1138C49.9492 75.528 49.9492 74.5782 49.3635 73.9925C48.7777 73.4067 47.8279 73.4067 47.2422 73.9925C46.6564 74.5782 46.6564 75.528 47.2422 76.1138C47.8279 76.6995 48.7777 76.6995 49.3635 76.1138Z" fill="white"/>
<path d="M206.207 78.8449C206.507 78.0449 207.807 76.3449 208.607 76.4449C212.907 76.6449 226.707 76.8449 232.707 70.2449C232.707 70.2449 236.507 67.1449 237.707 59.5449C237.707 59.5449 237.107 53.2449 236.607 50.9449C236.507 50.4449 236.607 49.9449 236.907 49.5449C237.307 48.9449 238.107 48.7449 238.807 48.9449L240.207 49.2449C241.207 49.5449 241.807 50.3449 241.907 51.3449L242.107 57.0449C242.107 57.0449 250.407 60.6449 247.207 72.6449C247.207 72.6449 242.507 86.1449 223.607 88.2449C223.607 88.2449 214.507 89.9449 206.307 81.8449C205.907 81.3449 206.007 79.5449 206.207 78.8449Z" fill="#22A45D"/>
<path d="M237.607 90.7449C237.607 90.7449 229.707 95.7449 219.107 90.9449C217.907 90.4449 217.907 87.9449 217.907 87.9449C221.207 88.5449 223.507 88.1449 223.507 88.1449C242.507 86.1449 247.207 72.6449 247.207 72.6449C250.407 60.6449 242.107 57.0449 242.107 57.0449C242.107 57.0449 241.007 55.8449 238.407 54.9449C237.907 53.9449 237.307 52.9449 236.907 52.1449C236.807 51.6449 236.807 51.2449 236.707 50.9449C236.607 50.4449 236.707 49.9449 237.007 49.5449C237.407 48.9449 238.207 48.7449 238.907 48.9449L240.207 49.2449C240.907 49.4449 241.407 49.9449 241.707 50.5449C241.707 50.5449 241.707 50.6449 241.807 50.6449L243.707 55.0449C243.707 55.0449 252.707 55.4449 254.007 67.7449C254.007 67.7449 254.507 81.9449 237.607 90.7449Z" fill="#30AC68"/>
<path d="M241.707 50.5449C241.507 49.9449 240.907 49.4449 240.207 49.2449L238.907 48.8449C238.207 48.6449 237.507 48.9449 237.007 49.4449C236.707 49.8449 236.607 50.3449 236.707 50.8449C236.807 51.1449 236.807 51.6449 236.907 52.0449C236.707 51.8449 236.507 51.5449 236.407 51.2449C236.107 50.8449 236.107 50.3449 236.207 49.8449C236.407 49.1449 237.007 48.6449 237.707 48.5449L239.107 48.4449C240.107 48.3449 241.007 48.9449 241.407 49.8449L241.707 50.5449Z" fill="#136D3C"/>
<path d="M242.107 57.0449C242.107 57.0449 241.007 55.8449 238.407 54.9449C239.507 56.9449 240.407 58.9449 240.407 58.9449C242.007 66.4449 239.607 70.7449 239.607 70.7449C236.307 79.0449 223.407 83.8449 219.307 85.1449C218.607 85.3449 218.107 86.0449 218.007 86.8449V88.0449C221.307 88.6449 223.607 88.2449 223.607 88.2449C242.507 86.1449 247.207 72.6449 247.207 72.6449C250.407 60.6449 242.107 57.0449 242.107 57.0449Z" fill="#5DBB88"/>
<rect x="32.0822" y="292.271" width="4.79995" height="12.2999" transform="rotate(-45 32.0822 292.271)" fill="#EEF8F2"/>
<path d="M37.7067 291.045L35.5067 288.845L32.1067 292.245L34.3067 294.445C35.1067 294.145 35.8067 293.645 36.4067 293.145C37.0067 292.545 37.4067 291.845 37.7067 291.045Z" fill="#DBEDE2"/>
<path d="M35.2067 291.945C31.1067 296.045 14.1067 291.145 5.70666 282.745C-2.69334 274.345 -0.793341 267.245 4.80666 261.545C8.60666 257.845 13.0067 255.745 17.9067 257.245C18.9067 257.545 20.0067 257.945 21.0067 258.545C22.6067 259.445 24.3067 260.745 26.0067 262.445C26.8067 263.245 27.7067 264.145 28.4067 265.245C28.9067 265.945 29.5067 266.645 29.9067 267.445C31.3067 269.545 32.5067 271.845 33.4067 274.145C33.7067 274.845 34.0067 275.445 34.2067 276.145C35.2067 278.745 35.9067 281.245 36.2067 283.545C36.3067 284.245 36.4067 284.945 36.4067 285.645C36.8067 288.345 36.3067 290.745 35.2067 291.945Z" fill="#FF7B65"/>
<path d="M43.6067 300.345C44.8067 300.745 46.1067 300.445 47.0067 299.545C48.3067 298.245 48.3067 296.045 47.0067 294.745C45.7067 293.445 43.5067 293.445 42.2067 294.745C41.3067 295.645 41.0067 297.045 41.4067 298.145C40.2067 297.745 38.9067 298.045 38.0067 298.945C36.7067 300.245 36.7067 302.445 38.0067 303.745C39.3067 305.045 41.5067 305.045 42.8067 303.745C43.7067 302.845 44.0067 301.445 43.6067 300.345Z" fill="#EEF8F2"/>
<path d="M36.6067 285.545C35.2067 286.045 33.9067 286.845 32.7067 288.045C32.3067 288.445 31.6067 288.445 31.2067 288.045C30.8067 287.645 30.8067 286.945 31.2067 286.545C32.7067 285.045 34.4067 284.045 36.3067 283.445C36.4067 284.145 36.5067 284.845 36.6067 285.545Z" fill="#E76A56"/>
<path d="M34.3067 276.045C31.6067 276.045 28.8067 277.045 26.8067 279.145C26.4067 279.545 25.7067 279.545 25.3067 279.145C24.9067 278.745 24.9067 278.145 25.3067 277.745C27.6067 275.445 30.5067 274.245 33.5067 274.045C33.8067 274.745 34.1067 275.345 34.3067 276.045Z" fill="#E76A56"/>
<path d="M30.0067 267.345C26.8067 266.845 23.4067 267.845 20.9067 270.345C20.5067 270.745 19.8067 270.745 19.4067 270.345C19.0067 269.945 19.0067 269.245 19.4067 268.845C21.9067 266.345 25.2067 265.145 28.4067 265.145C29.0067 265.845 29.5067 266.645 30.0067 267.345Z" fill="#E76A56"/>
<path d="M21.0067 258.545C18.8067 258.845 16.6067 259.845 14.9067 261.545C14.5067 261.945 13.9067 261.945 13.5067 261.545C13.1067 261.145 13.1067 260.545 13.5067 260.145C14.8067 258.845 16.3067 257.845 18.0067 257.245C18.9067 257.445 20.0067 257.945 21.0067 258.545Z" fill="#E76A56"/>
<path d="M289.29 114.682L293.821 110.151C299.711 116.192 303.335 124.347 303.486 133.408H270.564L289.29 114.682Z" fill="#FF7B65"/>
<path d="M270.564 133.408L289.29 114.682C293.972 119.514 296.841 126.159 296.992 133.408H270.564Z" fill="#FFD15C"/>
<path d="M294.727 131.143C295.784 130.237 295.935 128.575 295.029 127.518C294.123 126.461 292.462 126.31 291.405 127.216C290.952 127.518 291.103 128.273 291.556 129.029L289.592 130.69L290.952 132.351L292.915 130.69C293.67 131.143 294.425 131.445 294.727 131.143Z" fill="#22A45D"/>
<path fill-rule="evenodd" clip-rule="evenodd" d="M278.115 129.784C278.115 128.424 279.172 127.367 280.531 127.367C281.89 127.367 282.947 128.424 282.947 129.784C282.947 131.143 281.89 132.2 280.531 132.2C279.172 132.2 278.115 131.143 278.115 129.784ZM279.021 129.935C279.021 130.841 279.625 131.445 280.531 131.445C281.286 131.445 282.041 130.69 282.041 129.935C282.041 129.18 281.437 128.424 280.531 128.424C279.776 128.424 279.021 129.029 279.021 129.935Z" fill="#FF7B65"/>
<path fill-rule="evenodd" clip-rule="evenodd" d="M285.666 123.139C285.666 121.78 286.723 120.722 288.082 120.722C289.441 120.722 290.498 121.78 290.498 123.139C290.498 124.498 289.441 125.555 288.082 125.555C286.723 125.555 285.666 124.498 285.666 123.139ZM286.572 123.29C286.572 124.045 287.176 124.8 288.082 124.8C288.988 124.8 289.592 124.045 289.592 123.29C289.592 122.384 288.988 121.78 288.082 121.78C287.176 121.78 286.572 122.384 286.572 123.29Z" fill="#E76A56"/>
<path d="M151.233 14.1959L132.507 32.9224V0C141.568 0.15102 149.723 3.77551 155.764 9.66531L151.233 14.1959Z" fill="#FF7B65"/>
<path d="M151.233 14.1959L132.507 32.9225V6.4939C139.756 6.64492 146.25 9.5143 151.233 14.1959Z" fill="#FFD15C"/>
<path fill-rule="evenodd" clip-rule="evenodd" d="M142.474 14.3469C142.474 12.9877 143.531 11.9306 144.89 11.9306C146.25 11.9306 147.307 12.9877 147.307 14.3469C147.307 15.7061 146.25 16.7633 144.89 16.7633C143.531 16.7633 142.474 15.7061 142.474 14.3469ZM143.38 14.3469C143.38 15.2531 143.984 15.8571 144.89 15.8571C145.796 15.8571 146.401 15.2531 146.401 14.3469C146.401 13.5918 145.796 12.8367 144.89 12.8367C143.984 12.8367 143.38 13.4408 143.38 14.3469Z" fill="#FF7058"/>
<path d="M137.188 24.1633C138.773 24.1633 140.058 22.8786 140.058 21.2939C140.058 19.7092 138.773 18.4245 137.188 18.4245C135.604 18.4245 134.319 19.7092 134.319 21.2939C134.319 22.8786 135.604 24.1633 137.188 24.1633Z" fill="#22A45D"/>
<path d="M139.303 10.2694C139.152 10.7224 138.699 11.0245 138.245 10.8735C136.735 10.4204 135.074 11.3265 134.772 12.8367C134.621 13.2898 134.168 13.5918 133.715 13.4408C133.262 13.2898 132.96 12.8367 133.111 12.3837C133.866 9.96733 136.282 8.60815 138.699 9.21223C139.152 9.36325 139.454 9.81631 139.303 10.2694Z" fill="#5DBB88"/>
<path d="M84.772 71.7633C86.0231 71.7633 87.0373 70.7491 87.0373 69.498C87.0373 68.2469 86.0231 67.2327 84.772 67.2327C83.5209 67.2327 82.5067 68.2469 82.5067 69.498C82.5067 70.7491 83.5209 71.7633 84.772 71.7633Z" fill="#F8B64C"/>
<path d="M95.7964 56.8122C95.7964 55.302 94.5883 54.2449 93.2291 54.2449C91.7189 54.2449 90.6617 55.453 90.6617 56.8122C90.6617 57.2653 91.2658 57.5673 92.1719 57.7183V60.2857H94.4373V57.7183C95.1924 57.7183 95.7964 57.4163 95.7964 56.8122Z" fill="#22A45D"/>
<path d="M272.402 269.332C273.308 268.426 273.308 266.915 272.402 266.009C271.495 265.103 269.985 265.103 269.079 266.009C268.777 266.311 268.928 266.915 269.381 267.67L267.72 269.332L269.23 270.691L270.891 269.03C271.495 269.483 272.1 269.634 272.402 269.332Z" fill="#22A45D"/>
<path fill-rule="evenodd" clip-rule="evenodd" d="M143.507 104.661C143.507 103.302 144.564 102.245 145.923 102.245C147.282 102.245 148.339 103.302 148.339 104.661C148.339 106.02 147.282 107.078 145.923 107.078C144.564 107.078 143.507 106.02 143.507 104.661ZM144.413 104.661C144.413 105.567 145.017 106.171 145.923 106.171C146.678 106.171 147.433 105.567 147.433 104.661C147.433 103.755 146.829 103.151 145.923 103.151C145.017 103.151 144.413 103.755 144.413 104.661Z" fill="#FF7058"/>
<path fill-rule="evenodd" clip-rule="evenodd" d="M82.5067 322.51C82.5067 321.302 83.5638 320.245 84.772 320.245C85.9801 320.245 86.8862 321.302 87.0373 322.51C87.0373 323.718 85.9801 324.775 84.772 324.775C83.5638 324.775 82.5067 323.718 82.5067 322.51ZM83.4128 322.51C83.4128 323.265 84.0169 323.869 84.772 323.869C85.5271 323.869 86.1311 323.265 86.1311 322.51C86.1311 321.755 85.5271 321.151 84.772 321.151C84.0169 321.151 83.4128 321.755 83.4128 322.51Z" fill="#FF7058"/>
<path d="M95.376 280.984C96.9608 280.984 98.2454 279.699 98.2454 278.114C98.2454 276.53 96.9608 275.245 95.376 275.245C93.7913 275.245 92.5067 276.53 92.5067 278.114C92.5067 279.699 93.7913 280.984 95.376 280.984Z" fill="#F8B64C"/>
<path d="M66.376 136.984C67.9608 136.984 69.2454 135.699 69.2454 134.114C69.2454 132.53 67.9608 131.245 66.376 131.245C64.7913 131.245 63.5067 132.53 63.5067 134.114C63.5067 135.699 64.7913 136.984 66.376 136.984Z" fill="#F8B64C"/>
<path d="M174.433 122.135C173.98 122.135 173.678 121.682 173.678 121.229C173.98 119.718 172.923 118.208 171.262 117.906C170.809 117.906 170.507 117.453 170.507 117C170.507 116.547 170.96 116.245 171.413 116.245C173.829 116.698 175.49 118.963 175.188 121.38C175.339 121.984 174.886 122.286 174.433 122.135Z" fill="#F8B64C"/>
<path d="M218.621 278.473C219.789 278.473 220.735 277.527 220.735 276.359C220.735 275.191 219.789 274.245 218.621 274.245C217.453 274.245 216.507 275.191 216.507 276.359C216.507 277.527 217.453 278.473 218.621 278.473Z" fill="#F8B64C"/>
<path d="M261.528 254.985C260.169 254.834 259.263 253.626 259.565 252.266C259.716 250.907 260.924 250.001 262.283 250.303C262.736 250.303 262.887 251.058 263.038 251.813L265.304 252.115L265.002 254.079L262.585 253.777C262.434 254.532 261.981 255.136 261.528 254.985Z" fill="#22A45D"/>
<path d="M118.527 134.286C120.195 134.286 121.547 132.933 121.547 131.265C121.547 129.597 120.195 128.245 118.527 128.245C116.859 128.245 115.507 129.597 115.507 131.265C115.507 132.933 116.859 134.286 118.527 134.286Z" fill="#F8B64C"/>
<path d="M306.444 203.553C305.991 203.553 305.689 204.006 305.84 204.459C306.142 205.818 305.084 207.177 303.725 207.479C303.272 207.479 302.97 207.932 303.121 208.385C303.121 208.838 303.574 209.14 304.027 208.989C306.293 208.687 307.803 206.573 307.501 204.308C307.35 203.855 306.897 203.553 306.444 203.553Z" fill="#F8B64C"/>
<path d="M69.8684 340.663C69.4153 340.663 69.1133 341.116 69.2643 341.569C69.5663 342.928 68.5092 344.287 67.15 344.589C66.697 344.589 66.3949 345.042 66.5459 345.495C66.5459 345.948 66.999 346.251 67.4521 346.099C69.7174 345.797 71.2276 343.683 70.9255 341.418C70.7745 340.814 70.3214 340.512 69.8684 340.663Z" fill="#F8B64C"/>
<path d="M82.252 331.148C81.95 331.45 81.3459 331.45 81.0439 330.997C79.9867 329.789 78.1745 329.638 76.9663 330.695C76.6643 330.997 76.0602 330.997 75.7582 330.544C75.4561 330.242 75.4561 329.638 75.9092 329.336C77.8725 327.675 80.5908 327.977 82.252 329.789C82.5541 330.393 82.5541 330.846 82.252 331.148Z" fill="#F8B64C"/>
<path d="M294.211 188.148C293.909 188.45 293.305 188.45 293.003 187.997C291.946 186.789 290.133 186.638 288.925 187.695C288.623 187.997 288.019 187.997 287.717 187.544C287.415 187.242 287.415 186.638 287.868 186.336C289.831 184.675 292.55 184.977 294.211 186.789C294.664 187.393 294.513 187.846 294.211 188.148Z" fill="#F8B64C"/>
</svg>
