<svg width="375" height="384" viewBox="0 0 375 384" fill="none" xmlns="http://www.w3.org/2000/svg">
<path fill-rule="evenodd" clip-rule="evenodd" d="M310.563 319.234C313.217 318.473 314.752 315.704 313.991 313.05C313.23 310.395 310.461 308.861 307.806 309.622C305.152 310.383 303.617 313.152 304.378 315.806C305.139 318.461 307.908 319.996 310.563 319.234Z" fill="#F8B64C"/>
<path fill-rule="evenodd" clip-rule="evenodd" d="M116.529 271.217C119.184 270.455 120.718 267.687 119.957 265.032C119.196 262.378 116.427 260.843 113.773 261.604C111.118 262.365 109.584 265.134 110.345 267.788C111.106 270.443 113.875 271.978 116.529 271.217Z" fill="#F8B64C"/>
<path fill-rule="evenodd" clip-rule="evenodd" d="M72.8927 173.457C75.5472 172.696 77.082 169.927 76.3208 167.273C75.5597 164.618 72.7908 163.084 70.1363 163.845C67.4819 164.606 65.9471 167.375 66.7082 170.029C67.4694 172.684 70.2383 174.218 72.8927 173.457Z" fill="#F8B64C"/>
<path fill-rule="evenodd" clip-rule="evenodd" d="M263.577 58.4421C266.231 57.681 267.766 54.9121 267.005 52.2576C266.244 49.6032 263.475 48.0684 260.821 48.8295C258.166 49.5907 256.631 52.3596 257.393 55.014C258.154 57.6685 260.923 59.2033 263.577 58.4421Z" fill="#F8B64C"/>
<path fill-rule="evenodd" clip-rule="evenodd" d="M69.7623 131.703L77.8022 136.159L73.3456 144.199L65.3058 139.743L69.7623 131.703Z" fill="#FFD841"/>
<path fill-rule="evenodd" clip-rule="evenodd" d="M300.734 59.2309L308.774 63.6874L304.317 71.7273L296.277 67.2707L300.734 59.2309Z" fill="#FFD841"/>
<path fill-rule="evenodd" clip-rule="evenodd" d="M306.272 249.058L314.312 253.515L309.855 261.554L301.815 257.098L306.272 249.058Z" fill="#FFD841"/>
<path fill-rule="evenodd" clip-rule="evenodd" d="M137.903 285.894L145.943 290.35L141.486 298.39L133.446 293.934L137.903 285.894Z" fill="#FFD841"/>
<path fill-rule="evenodd" clip-rule="evenodd" d="M170.146 203.19C169.453 203.59 169.16 204.683 169.56 205.375L174.26 213.516C174.86 214.555 174.394 215.748 173.528 216.248C172.662 216.748 171.296 216.382 170.796 215.516L166.096 207.375C165.423 206.609 164.604 206.39 163.738 206.89L163.564 206.99C162.872 207.39 162.579 208.483 162.979 209.175L167.679 217.316C168.279 218.355 167.813 219.548 166.947 220.048C166.081 220.548 164.715 220.182 164.215 219.316L159.515 211.175C159.115 210.483 158.022 210.19 157.329 210.59C156.636 210.99 156.343 212.083 156.743 212.775L161.543 221.089C163.443 224.38 167.322 226.298 170.966 225.81C173.027 231.78 180.509 251.939 187.513 253.67C188.879 254.036 191.996 252.236 192.362 250.87C194.366 243.939 180.648 227.38 176.509 222.61C178.853 219.871 179.232 215.727 177.332 212.436L172.332 203.775C171.832 202.909 170.839 202.79 170.146 203.19Z" fill="#DCDCDC"/>
<path fill-rule="evenodd" clip-rule="evenodd" d="M174.881 235.79C178.215 243.565 182.868 252.425 187.513 253.67C188.879 254.036 191.996 252.236 192.362 250.87C193.607 246.225 188.26 237.765 183.194 230.99L174.881 235.79V235.79Z" fill="#F8B64C"/>
<path fill-rule="evenodd" clip-rule="evenodd" d="M229.688 165.119C225.357 167.619 225.493 175.854 227.893 180.011L228.793 181.57C230.693 184.861 234.472 186.605 238.189 185.844C239.923 190.848 247.686 212.693 255.063 214.67C256.429 215.036 259.546 213.236 259.912 211.87C261.889 204.493 246.852 186.848 243.386 182.844C245.73 180.105 246.282 175.861 244.382 172.57L243.482 171.011C241.082 166.854 234.018 162.619 229.688 165.119Z" fill="#DCDCDC"/>
<path fill-rule="evenodd" clip-rule="evenodd" d="M242.431 196.79C245.765 204.565 250.418 213.425 255.063 214.67C256.429 215.036 259.546 213.236 259.912 211.87C261.157 207.225 255.81 198.765 250.744 191.99L242.431 196.79V196.79Z" fill="#F8B64C"/>
<path d="M224.013 233.289C237.405 225.557 241.993 208.433 234.261 195.04C226.529 181.648 209.405 177.06 196.013 184.792C182.62 192.524 178.032 209.648 185.764 223.04C193.496 236.433 210.62 241.021 224.013 233.289Z" fill="#FFD600"/>
<path d="M220.513 227.227C230.557 221.428 233.998 208.585 228.199 198.54C222.4 188.496 209.557 185.055 199.513 190.854C189.468 196.653 186.027 209.496 191.826 219.54C197.625 229.585 210.468 233.026 220.513 227.227Z" fill="white"/>
<path d="M256.688 211.884C257.548 211.387 257.53 209.743 256.646 208.213C255.763 206.682 254.348 205.844 253.488 206.341C252.627 206.838 252.645 208.482 253.529 210.013C254.412 211.543 255.827 212.381 256.688 211.884Z" fill="white"/>
<path d="M189.138 250.884C189.998 250.387 189.98 248.743 189.096 247.213C188.213 245.682 186.798 244.844 185.938 245.341C185.077 245.838 185.095 247.482 185.979 249.013C186.862 250.543 188.277 251.381 189.138 250.884Z" fill="white"/>
<path fill-rule="evenodd" clip-rule="evenodd" d="M188.5 376.321C271.067 376.321 338 309.387 338 226.821C338 144.254 271.067 77.3209 188.5 77.3209C105.933 77.3209 39 144.254 39 226.821C39 309.387 105.933 376.321 188.5 376.321Z" fill="#F8B64C"/>
<mask id="mask0_4_121" style="mask-type:luminance" maskUnits="userSpaceOnUse" x="39" y="77" width="299" height="300">
<path fill-rule="evenodd" clip-rule="evenodd" d="M188.5 376.321C271.067 376.321 338 309.387 338 226.821C338 144.254 271.067 77.3209 188.5 77.3209C105.933 77.3209 39 144.254 39 226.821C39 309.387 105.933 376.321 188.5 376.321Z" fill="white"/>
</mask>
<g mask="url(#mask0_4_121)">
<path fill-rule="evenodd" clip-rule="evenodd" d="M236.866 43.4025C370.641 116.613 267.192 164.351 350.045 237.431C396.736 278.614 327.737 357.775 246.406 356.248C217.435 355.705 187.618 301.524 159.906 292.248C127.366 281.356 98.0145 309.8 81.2264 271.616C10.0054 109.626 152.647 164.732 159.953 92.8755C167.26 21.0191 218.094 33.8358 236.866 43.4025Z" fill="#FBFBFB"/>
<path fill-rule="evenodd" clip-rule="evenodd" d="M310.563 318.991C313.217 318.23 314.752 315.461 313.991 312.806C313.23 310.152 310.461 308.617 307.806 309.378C305.152 310.139 303.617 312.908 304.378 315.563C305.139 318.217 307.908 319.752 310.563 318.991Z" fill="#22A45D"/>
<path fill-rule="evenodd" clip-rule="evenodd" d="M114.542 271.217C117.197 270.455 118.731 267.687 117.97 265.032C117.209 262.378 114.44 260.843 111.786 261.604C109.131 262.365 107.596 265.134 108.358 267.788C109.119 270.443 111.888 271.978 114.542 271.217Z" fill="#22A45D"/>
<path fill-rule="evenodd" clip-rule="evenodd" d="M70.9056 173.457C73.56 172.696 75.0949 169.927 74.3337 167.273C73.5725 164.618 70.8037 163.084 68.1492 163.845C65.4948 164.606 63.9599 167.375 64.7211 170.029C65.4822 172.684 68.2511 174.218 70.9056 173.457Z" fill="#22A45D"/>
<path fill-rule="evenodd" clip-rule="evenodd" d="M304.285 249.058L312.324 253.515L307.868 261.554L299.828 257.098L304.285 249.058Z" fill="#FFD841"/>
<path fill-rule="evenodd" clip-rule="evenodd" d="M135.916 285.894L143.955 290.35L139.499 298.39L131.459 293.934L135.916 285.894Z" fill="#FFD841"/>
<path fill-rule="evenodd" clip-rule="evenodd" d="M67.7752 131.703L75.815 136.159L71.3584 144.199L63.3186 139.743L67.7752 131.703Z" fill="#FFD841"/>
<path fill-rule="evenodd" clip-rule="evenodd" d="M168.159 203.19C167.466 203.59 167.173 204.683 167.573 205.375L172.273 213.516C172.873 214.555 172.407 215.748 171.541 216.248C170.675 216.748 169.309 216.382 168.809 215.516L164.109 207.375C163.436 206.609 162.616 206.39 161.75 206.89L161.577 206.99C160.884 207.39 160.592 208.483 160.992 209.175L165.692 217.316C166.292 218.355 165.826 219.548 164.96 220.048C164.093 220.548 162.727 220.182 162.227 219.316L157.527 211.175C157.127 210.483 156.035 210.19 155.342 210.59C154.649 210.99 154.356 212.083 154.756 212.775L159.556 221.089C161.456 224.38 165.335 226.298 168.979 225.81C171.04 231.78 178.522 251.939 185.526 253.67C186.892 254.036 190.009 252.236 190.375 250.87C192.379 243.939 178.661 227.38 174.522 222.61C176.866 219.871 177.245 215.727 175.345 212.436L170.345 203.775C169.845 202.909 168.852 202.79 168.159 203.19Z" fill="#DCDCDC"/>
<path fill-rule="evenodd" clip-rule="evenodd" d="M172.893 235.79C176.227 243.565 180.881 252.425 185.526 253.67C186.892 254.036 190.009 252.236 190.375 250.87C191.62 246.225 186.273 237.765 181.207 230.99L172.893 235.79V235.79Z" fill="#22A45D"/>
<path fill-rule="evenodd" clip-rule="evenodd" d="M227.7 165.119C223.37 167.619 223.506 175.854 225.906 180.011L226.806 181.57C228.706 184.861 232.485 186.605 236.202 185.844C237.936 190.848 245.699 212.693 253.076 214.67C254.442 215.036 257.559 213.236 257.925 211.87C259.902 204.493 244.864 186.848 241.398 182.844C243.743 180.105 244.295 175.861 242.395 172.57L241.495 171.011C239.095 166.854 232.031 162.619 227.7 165.119Z" fill="#DCDCDC"/>
<path fill-rule="evenodd" clip-rule="evenodd" d="M240.443 196.79C243.777 204.565 248.431 213.425 253.076 214.67C254.442 215.036 257.559 213.236 257.925 211.87C259.17 207.225 253.823 198.765 248.757 191.99L240.443 196.79V196.79Z" fill="#22A45D"/>
<path d="M222.025 233.289C235.418 225.557 240.006 208.433 232.274 195.04C224.542 181.648 207.418 177.06 194.025 184.792C180.633 192.524 176.045 209.648 183.777 223.04C191.509 236.433 208.633 241.021 222.025 233.289Z" fill="#FFD600"/>
<path d="M218.525 227.227C228.57 221.428 232.011 208.585 226.212 198.54C220.413 188.496 207.57 185.055 197.525 190.854C187.481 196.653 184.04 209.496 189.839 219.54C195.638 229.585 208.481 233.026 218.525 227.227Z" fill="white"/>
<path d="M254.7 211.884C255.561 211.387 255.543 209.743 254.659 208.213C253.776 206.682 252.361 205.844 251.5 206.341C250.639 206.838 250.658 208.482 251.542 210.013C252.425 211.543 253.839 212.381 254.7 211.884Z" fill="white"/>
<path d="M187.15 250.884C188.011 250.387 187.993 248.743 187.109 247.213C186.226 245.682 184.811 244.844 183.95 245.341C183.089 245.838 183.108 247.482 183.992 249.013C184.875 250.543 186.289 251.381 187.15 250.884Z" fill="white"/>
</g>
</svg>
