<svg width="299" height="299" viewBox="0 0 299 299" fill="none" xmlns="http://www.w3.org/2000/svg">
<path fill-rule="evenodd" clip-rule="evenodd" d="M149.5 299C232.067 299 299 232.067 299 149.5C299 66.9334 232.067 0 149.5 0C66.9334 0 0 66.9334 0 149.5C0 232.067 66.9334 299 149.5 299Z" fill="#F1EFDD"/>
<mask id="mask0_4_238" style="mask-type:luminance" maskUnits="userSpaceOnUse" x="0" y="0" width="299" height="299">
<path fill-rule="evenodd" clip-rule="evenodd" d="M149.5 299C232.067 299 299 232.067 299 149.5C299 66.9334 232.067 0 149.5 0C66.9334 0 0 66.9334 0 149.5C0 232.067 66.9334 299 149.5 299Z" fill="white"/>
</mask>
<g mask="url(#mask0_4_238)">
<path fill-rule="evenodd" clip-rule="evenodd" d="M2 160.561L304 198.061L319 237.061L-26 198.061L2 160.561Z" fill="#FBFBFB"/>
<path d="M107.36 192.884C121.173 194.58 133.747 184.757 135.443 170.943C137.139 157.129 127.316 144.556 113.502 142.86C99.688 141.164 87.1147 150.987 85.4186 164.801C83.7225 178.615 93.5458 191.188 107.36 192.884Z" fill="#40596B"/>
<path d="M85.7164 164.837C85.6067 165.731 85.4604 166.922 85.6485 167.852L135.077 173.921C135.187 173.027 135.631 171.873 135.741 170.98L85.7164 164.837Z" fill="#334A5E"/>
<path d="M109.078 178.889C115.163 179.636 120.701 175.309 121.448 169.225C122.195 163.14 117.868 157.602 111.783 156.855C105.699 156.107 100.161 160.434 99.4135 166.519C98.6664 172.604 102.993 178.142 109.078 178.889Z" fill="#F2F2F2"/>
<path d="M201.358 160.901L199.164 178.767L95.5426 166.044L101.392 118.402L129.68 121.875C143.675 123.593 153.303 136.261 151.584 150.256L150.67 157.7L162.879 159.199C164.759 151.269 170.328 145.303 177.354 142.237C184.343 139.468 189.128 132.499 188.851 124.909L188.809 122.788L199.231 124.067C202.01 135.894 202.894 148.395 201.358 160.901Z" fill="#FFD15C"/>
<path d="M114.599 133.927C95.8396 131.623 78.789 144.945 76.4857 163.704L144.376 172.04C146.679 153.281 133.358 136.23 114.599 133.927Z" fill="#FF7058"/>
<path d="M114.233 136.904C132.099 139.098 144.71 154.55 144.078 172.003L144.376 172.04C146.679 153.281 133.358 136.23 114.599 133.927C95.8396 131.623 78.789 144.945 76.4857 163.704L76.7834 163.74C80.3928 146.653 96.665 134.747 114.233 136.904Z" fill="#FC6551"/>
<path d="M99.4135 166.519C99.3038 167.412 99.4553 168.64 99.6434 169.57L121.082 172.202C121.49 171.346 121.934 170.191 122.044 169.298L99.4135 166.519Z" fill="#CDD6E0"/>
<path d="M145.221 133.153C146.115 133.263 147.044 133.075 147.64 133.148C143.534 127.203 137.124 122.789 129.68 121.875L101.392 118.402L100.259 127.632L145.221 133.153Z" fill="#F8B64C"/>
<path d="M145.587 130.175L100.029 124.582C97.0513 124.216 94.9617 121.541 95.3273 118.564L95.5467 116.777C95.9123 113.799 98.5869 111.71 101.565 112.075L147.122 117.669C150.1 118.035 152.19 120.709 151.824 123.687L151.605 125.474C151.239 128.451 148.564 130.541 145.587 130.175Z" fill="#FF7058"/>
<path d="M199.759 127.155L198.865 127.045C197.638 127.197 193.062 127.541 188.559 127.291C188.668 126.398 188.741 125.802 188.553 124.872L188.512 122.751L198.933 124.031C199.419 124.997 199.607 125.927 199.759 127.155Z" fill="#F8B64C"/>
<path d="M198.933 124.031C198.933 124.031 182.118 125.593 178.983 121.581C176.894 118.907 178.027 109.676 180.701 107.586C184.713 104.452 200.652 110.036 200.652 110.036L198.933 124.031Z" fill="#40596B"/>
<rect x="200.652" y="110.036" width="3.3" height="14.1" transform="rotate(7 200.652 110.036)" fill="#F8B64C"/>
<path d="M183.366 117.888L174.731 116.828C172.944 116.608 171.936 114.973 172.119 113.484C172.338 111.698 173.973 110.69 175.462 110.872L184.097 111.933C185.884 112.152 186.892 113.787 186.709 115.276C186.49 117.062 185.153 118.107 183.366 117.888Z" fill="#CDD6E0"/>
<path d="M193.413 203.45C202.458 204.561 210.691 198.129 211.801 189.084C212.912 180.039 206.48 171.807 197.435 170.696C188.39 169.586 180.158 176.017 179.047 185.062C177.937 194.107 184.369 202.34 193.413 203.45Z" fill="#40596B"/>
<path d="M197.472 170.398C188.539 169.302 180.181 175.832 179.084 184.765C178.755 187.444 179.021 190.197 179.92 192.726L211.644 185.438C211.367 177.847 205.214 171.349 197.472 170.398Z" fill="#334A5E"/>
<path d="M194.62 193.624C198.238 194.068 201.531 191.495 201.975 187.877C202.419 184.26 199.846 180.967 196.229 180.522C192.611 180.078 189.318 182.651 188.873 186.269C188.429 189.887 191.002 193.18 194.62 193.624Z" fill="#F2F2F2"/>
<path d="M201.975 187.877C202.414 184.304 199.802 180.961 196.229 180.522C192.655 180.084 189.312 182.696 188.873 186.269C188.691 187.758 189.103 189.32 189.85 190.62L201.975 187.877Z" fill="#CDD6E0"/>
<path d="M189.787 161.596C176.398 164.788 167.795 178.24 170.987 191.629L219.82 180.396C216.925 167.044 203.437 158.738 189.787 161.596Z" fill="#FF7058"/>
<path d="M170.574 190.067C169.916 178.198 178.19 167.426 190.315 164.684C202.142 161.904 214.099 167.906 219.146 178.5C219.182 178.202 218.921 177.868 218.958 177.57C216.225 170.283 210.26 164.714 202.962 162.609C202.664 162.573 202.105 162.202 201.807 162.165C201.51 162.129 200.914 162.056 200.616 162.019C199.723 161.909 198.532 161.763 197.639 161.654C196.448 161.507 195.518 161.695 194.327 161.549C194.029 161.513 194.029 161.513 193.731 161.476C192.801 161.664 191.574 161.816 190.644 162.004L190.346 161.967C177.03 164.564 168.834 177.159 170.574 190.067Z" fill="#FC6551"/>
</g>
<path fill-rule="evenodd" clip-rule="evenodd" d="M258 255.061C260.761 255.061 263 252.823 263 250.061C263 247.3 260.761 245.061 258 245.061C255.239 245.061 253 247.3 253 250.061C253 252.823 255.239 255.061 258 255.061Z" fill="#22A45D"/>
<path fill-rule="evenodd" clip-rule="evenodd" d="M141 77.0612C143.761 77.0612 146 74.8226 146 72.0612C146 69.2997 143.761 67.0612 141 67.0612C138.239 67.0612 136 69.2997 136 72.0612C136 74.8226 138.239 77.0612 141 77.0612Z" fill="#22A45D"/>
<path fill-rule="evenodd" clip-rule="evenodd" d="M15 87.0612C17.7614 87.0612 20 84.8226 20 82.0612C20 79.2997 17.7614 77.0612 15 77.0612C12.2386 77.0612 10 79.2997 10 82.0612C10 84.8226 12.2386 87.0612 15 87.0612Z" fill="#22A45D"/>
<path fill-rule="evenodd" clip-rule="evenodd" d="M35 197.061C37.7614 197.061 40 194.823 40 192.061C40 189.3 37.7614 187.061 35 187.061C32.2386 187.061 30 189.3 30 192.061C30 194.823 32.2386 197.061 35 197.061Z" fill="#22A45D"/>
<path fill-rule="evenodd" clip-rule="evenodd" d="M23.5 46.0612L30 52.5612L23.5 59.0612L17 52.5612L23.5 46.0612Z" fill="#FFD841"/>
<path fill-rule="evenodd" clip-rule="evenodd" d="M70.5 208.061L77 214.561L70.5 221.061L64 214.561L70.5 208.061Z" fill="#FFD841"/>
<path fill-rule="evenodd" clip-rule="evenodd" d="M269.5 221.061L276 227.561L269.5 234.061L263 227.561L269.5 221.061Z" fill="#FFD841"/>
<path fill-rule="evenodd" clip-rule="evenodd" d="M157.5 97.0612L164 103.561L157.5 110.061L151 103.561L157.5 97.0612Z" fill="#FFD841"/>
</svg>
