<svg width="65" height="65" viewBox="0 0 65 65" fill="none" xmlns="http://www.w3.org/2000/svg">
<path d="M63.7763 48.3667C57.5306 58.3111 45.8749 65 32.5262 65C18.7229 65 6.72984 57.8481 0.656887 47.3399C-0.37888 45.8148 0.120198 45.0993 0.120198 45.0993C0.575992 44.1106 2.67682 44.1926 2.67682 44.1926H62.2207C62.2207 44.1926 64.1442 44.1891 64.4996 45.0374C64.4996 45.0374 65.4178 46.3578 63.7763 48.3667Z" fill="#F8AF0C"/>
<path d="M39.8915 40.4448C30.9159 42.6487 20.9472 40.502 13.9071 34.0032C6.62734 27.2834 4.38837 17.6727 7.18912 9.17422C7.5142 7.86562 8.18619 7.73131 8.18619 7.73131C8.99144 7.43163 10.0526 8.49776 10.0526 8.49776L40.7214 36.8081L41.4557 37.486C41.4557 37.486 42.4723 38.4205 42.1749 39.041C42.1749 39.041 41.9051 40.1844 39.8915 40.4448Z" fill="#22A45D"/>
<path d="M40.0023 33.0164C33.9608 29.7831 29.897 23.749 29.897 16.8386C29.897 9.69271 34.2421 3.48402 40.6263 0.340096C41.5528 -0.196228 41.9875 0.0622253 41.9875 0.0622253C42.5882 0.298065 42.5383 1.38578 42.5383 1.38578V32.211C42.5383 32.211 42.5404 33.2069 42.025 33.3908C42.025 33.3908 41.223 33.8662 40.0023 33.0164Z" fill="#FF7058"/>
<path d="M44.7403 34.9096C43.3775 30.1806 44.7049 24.9284 48.7229 21.2192C52.8781 17.3838 58.8205 16.2041 64.0752 17.6799C64.8841 17.8511 64.9672 18.2051 64.9672 18.2051C65.1524 18.6293 64.4933 19.1885 64.4933 19.1885L46.9888 35.3468L46.5698 35.7337C46.5698 35.7337 45.9917 36.2693 45.6083 36.1127C45.6083 36.1127 44.9012 35.9704 44.7403 34.9096Z" fill="#FFD15C"/>
</svg>
