<svg width="24" height="24" viewBox="0 0 24 24" fill="none" xmlns="http://www.w3.org/2000/svg">
<path fill-rule="evenodd" clip-rule="evenodd" d="M6.16667 10.75C6.16667 7 8.66667 4.5 12.4167 4.5C16.1667 4.5 18.6667 7.625 18.6667 10.75C18.6667 12.6938 16.8531 15.3631 13.2258 18.7577C12.7628 19.191 12.0488 19.209 11.5646 18.7996C7.96597 15.7565 6.16667 13.0733 6.16667 10.75ZM12.4167 12C13.5673 12 14.5 11.0673 14.5 9.91667C14.5 8.76607 13.5673 7.83333 12.4167 7.83333C11.2661 7.83333 10.3333 8.76607 10.3333 9.91667C10.3333 11.0673 11.2661 12 12.4167 12Z" fill="#868686"/>
</svg>
