<svg width="34" height="34" viewBox="0 0 34 34" fill="none" xmlns="http://www.w3.org/2000/svg">
<path fill-rule="evenodd" clip-rule="evenodd" d="M9 9.6C9 9.03995 9 8.75992 9.10899 8.54601C9.20487 8.35785 9.35785 8.20487 9.54601 8.10899C9.75992 8 10.0399 8 10.6 8H23.4C23.9601 8 24.2401 8 24.454 8.10899C24.6422 8.20487 24.7951 8.35785 24.891 8.54601C25 8.75992 25 9.03995 25 9.6V24.4C25 24.9601 25 25.2401 24.891 25.454C24.8431 25.5481 24.7809 25.6334 24.7071 25.7071L23 24L21.5 25.5L20 24L18.5 25.5L17 24L15.5 25.5L14 24L12.5 25.5L11 24L9.29289 25.7071C9.21914 25.6334 9.15693 25.5481 9.10899 25.454C9 25.2401 9 24.9601 9 24.4V9.6ZM11.0545 10.273C11 10.38 11 10.52 11 10.8V11.2C11 11.48 11 11.62 11.0545 11.727C11.1024 11.8211 11.1789 11.8976 11.273 11.9455C11.38 12 11.52 12 11.8 12H22.2C22.48 12 22.62 12 22.727 11.9455C22.8211 11.8976 22.8976 11.8211 22.9455 11.727C23 11.62 23 11.48 23 11.2V10.8C23 10.52 23 10.38 22.9455 10.273C22.8976 10.1789 22.8211 10.1024 22.727 10.0545C22.62 10 22.48 10 22.2 10H11.8C11.52 10 11.38 10 11.273 10.0545C11.1789 10.1024 11.1024 10.1789 11.0545 10.273Z" fill="#868686"/>
</svg>
