<svg width="20" height="20" viewBox="0 0 20 20" fill="none" xmlns="http://www.w3.org/2000/svg">
<path fill-rule="evenodd" clip-rule="evenodd" d="M10 14.1666L7.16365 15.6578C6.82418 15.8363 6.4043 15.7058 6.22583 15.3663C6.15476 15.2311 6.13023 15.0763 6.15605 14.9257L6.69775 11.7674L4.40307 9.53064C4.12843 9.26293 4.12281 8.82327 4.39052 8.54863C4.49713 8.43927 4.63681 8.36809 4.78794 8.34613L7.95911 7.88534L9.3773 5.01177C9.54703 4.66785 9.96344 4.52664 10.3074 4.69638C10.4443 4.76397 10.5552 4.87482 10.6228 5.01177L12.041 7.88534L15.2121 8.34613C15.5917 8.40128 15.8546 8.75367 15.7995 9.13322C15.7775 9.28436 15.7063 9.42404 15.597 9.53064L13.3023 11.7674L13.844 14.9257C13.9088 15.3038 13.655 15.6628 13.277 15.7276C13.1264 15.7534 12.9716 15.7289 12.8364 15.6578L10 14.1666Z" fill="#EEA734"/>
</svg>
