<svg width="214" height="244" viewBox="0 0 214 244" fill="none" xmlns="http://www.w3.org/2000/svg">
<path fill-rule="evenodd" clip-rule="evenodd" d="M202.704 163.434C203.708 164.964 204.713 166.495 205.768 167.99C205.923 168.209 206.081 168.43 206.241 168.653C207.735 170.738 209.335 172.972 209.311 175.623C209.3 176.927 209.11 178.368 207.853 179.069C207.825 178.561 207.097 179.063 206.853 179.232C206.839 179.242 206.826 179.251 206.815 179.258C206.379 179.555 206.292 179.68 206.183 179.704C206.082 179.727 205.962 179.663 205.527 179.567C204.978 179.445 204.46 179.431 203.954 179.416C203.106 179.392 202.296 179.369 201.444 178.846C200.619 178.34 199.798 177.829 198.977 177.318C196.928 176.044 194.881 174.771 192.786 173.564C186.444 169.912 180.165 166.172 174.282 161.807C171.02 159.387 167.67 157.047 164.313 154.703C157.084 149.654 149.826 144.585 143.371 138.657C133.926 129.984 124.014 121.378 112.807 115.035C112.638 114.94 112.4 114.834 112.134 114.715C111.209 114.305 109.947 113.744 110.1 112.957C110.23 112.295 111.339 111.434 112.176 110.784C112.462 110.561 112.717 110.364 112.89 110.207C113.725 109.45 114.572 108.708 115.42 107.966C116.964 106.613 118.508 105.26 119.976 103.822C124.174 99.71 128.34 95.1716 131.707 90.3466C133.181 88.2347 134.005 85.91 134.852 83.5212C134.947 83.2548 135.041 82.988 135.137 82.7202C135.981 80.3644 136.761 77.4644 135.391 75.1341C134.757 74.0544 133.882 73.6166 132.657 73.6985C132.495 73.7093 132.36 73.7236 132.246 73.7357C131.647 73.7998 131.625 73.8019 131.287 72.8985C131.234 72.7561 131.182 72.6108 131.13 72.4646C130.756 71.4208 130.36 70.3161 129.343 69.7285C128.242 69.0929 127.463 69.6599 126.592 70.2934C126.512 70.3519 126.431 70.4108 126.349 70.4693C126.166 70.2053 125.976 69.9096 125.777 69.599C124.757 68.0091 123.487 66.0295 121.598 65.9C119.255 65.7394 117.919 68.6158 117.103 70.3704L117.088 70.4017C114.682 75.5806 111.55 80.4181 108.182 85.0299C104.532 90.029 100.799 95.1141 96.7773 99.8214C96.5938 100.036 96.4046 100.273 96.2089 100.517C95.4977 101.406 94.7002 102.403 93.7592 102.877C92.5284 103.497 91.5069 102.914 90.4666 102.201C89.8961 101.809 89.3291 101.416 88.7632 101.022C86.8961 99.7253 85.0363 98.4335 83.0776 97.2522C80.9131 95.9462 78.7019 94.7244 76.49 93.5023C75.813 93.1283 75.136 92.7539 74.46 92.3774C73.9553 92.0964 73.4608 91.7923 72.9662 91.4879C72.2139 91.0254 71.461 90.5626 70.67 90.1784C69.9725 89.8395 69.2393 89.5985 68.5059 89.3572C67.9553 89.1761 67.4043 88.995 66.8683 88.7721C71.1677 87.4904 75.682 88.9818 79.8073 90.3442C80.087 90.4368 80.3653 90.5284 80.6411 90.619C82.8965 91.357 85.2554 92.1256 87.6633 91.9271C89.746 91.7557 91.6361 90.6406 93.2834 89.4227C96.2612 87.2209 96.4948 83.914 95.5239 80.5717C94.867 78.3093 94.005 76.0981 93.1441 73.8883C92.5409 72.3406 91.938 70.7935 91.4062 69.2305C90.819 67.5044 90.4143 65.6715 91.7514 64.1802C92.9477 62.8456 94.4958 62.6816 96.1285 63.2068C96.2908 63.259 96.452 63.3109 96.6129 63.3628C100.377 64.5765 103.773 65.6718 107.844 65.5559C111.162 65.4615 115.382 64.5198 117.618 61.8234C118.843 60.3454 118.889 58.3132 118.894 56.4799C118.901 54.307 118.763 52.1219 118.459 49.971C118.343 49.1452 118.186 48.3188 118.029 47.4937C117.458 44.4843 116.889 41.4881 118.274 38.5637C118.688 37.6898 119.84 35.6542 120.981 35.5323C122.212 35.4006 122.501 36.8759 122.683 37.8016C122.705 37.9138 122.726 38.0179 122.746 38.1099C122.934 37.9911 123.115 37.9545 123.276 37.9221C123.569 37.8629 123.794 37.8177 123.872 37.3113C125.049 38.5445 126.062 39.9052 127.076 41.2673C127.511 41.8524 127.947 42.4375 128.396 43.0132C129.035 43.8323 129.834 44.5766 130.634 45.3216C131.628 46.2473 132.622 47.1733 133.309 48.2439C134.008 49.3337 133.476 50.7985 132.978 52.1721C132.726 52.8658 132.483 53.5359 132.411 54.1228C132.168 56.0936 132.683 58.349 134.029 59.8518C134.659 60.5543 135.429 61.0426 136.359 61.2314C136.854 61.3317 137.337 61.223 137.803 61.1178C138.208 61.0266 138.601 60.9381 138.98 60.9917C139.554 61.0729 139.662 61.4069 139.825 61.9119C139.854 62.0021 139.886 62.0979 139.921 62.1985C140.245 63.1096 140.657 63.9698 141.42 64.61C141.739 64.8774 142.067 65.0735 142.387 65.2651C142.922 65.5848 143.433 65.8906 143.84 66.4913C143.981 66.6989 144.107 66.9047 144.229 67.1057C144.602 67.7172 144.948 68.2853 145.611 68.7231C145.914 68.923 146.264 69.087 146.614 69.2514C147.624 69.725 148.639 70.2008 148.545 71.5469L149.151 71.0652C149.619 72.5708 150.264 74.0286 150.953 75.4444C151.275 76.1078 151.441 76.4603 151.424 77.1983C151.421 77.3574 151.39 77.5037 151.36 77.6455C151.298 77.9363 151.241 78.2065 151.435 78.5231C151.685 78.9323 152.164 79.0891 152.639 79.2447C153.038 79.3753 153.435 79.5052 153.692 79.7832C153.969 80.0841 153.975 80.4362 153.98 80.7817C153.985 81.1536 153.991 81.5172 154.337 81.7993C154.056 81.8857 153.277 82.5147 153.57 82.8967C153.824 83.2283 153.937 83.0851 154.05 82.9399C154.125 82.8445 154.201 82.748 154.318 82.7839C154.683 82.896 154.81 83.1935 154.932 83.4797C155.036 83.7246 155.137 83.9614 155.381 84.0673C155.491 84.1153 155.481 83.5947 155.476 83.4724C157.065 86.6048 158.796 89.6612 160.527 92.7173C162.779 96.6943 165.031 100.67 166.968 104.81C173.064 117.841 180.311 130.529 188.325 142.481C188.954 143.419 189.603 144.354 190.253 145.292C191.559 147.174 192.871 149.065 194.038 151C195.145 152.838 196.424 154.544 197.705 156.252C198.456 157.253 199.208 158.255 199.926 159.285C200.878 160.65 201.791 162.042 202.704 163.434ZM155.474 83.4693C155.473 83.4362 155.474 83.4421 155.476 83.4724C155.475 83.4714 155.475 83.4703 155.474 83.4693ZM25.7637 73.0068C25.7449 73.2464 25.7258 73.4916 25.8073 73.7695C25.8901 74.0537 26.127 74.2672 26.3617 74.4786C26.5296 74.6301 26.6964 74.7802 26.8047 74.9547C27.6764 73.6713 27.6461 70.9228 27.1143 69.5506C26.8632 68.9024 26.3882 68.0586 26.012 67.4895C25.9532 67.4007 25.8567 67.3038 25.7634 67.2102C25.6603 67.1067 25.5614 67.0075 25.5206 66.9267C25.4559 66.7978 25.4262 66.6226 25.3963 66.445C25.3642 66.2566 25.3322 66.0657 25.2566 65.9261C24.8338 65.1404 23.9085 64.9464 23.0953 65.0394C23.0078 65.0495 22.9194 65.0592 22.8295 65.069C22.0842 65.1505 21.2696 65.2396 20.6044 65.5632C20.3975 65.6638 20.2216 65.7871 20.0531 65.9052C19.6609 66.18 19.3102 66.4258 18.7098 66.2879C18.925 66.6588 18.7596 66.9305 18.5872 67.214C18.4876 67.378 18.3852 67.5459 18.3532 67.7395C18.2403 68.4173 18.459 69.0247 18.9066 69.5391C19.7362 70.4926 20.9321 70.5762 22.0978 70.6577C22.2347 70.6671 22.3712 70.6769 22.5067 70.6877C23.5957 70.7754 24.9355 70.9558 25.5757 71.9763C25.8146 72.3576 25.7895 72.677 25.7637 73.0068ZM30.751 69.9862C31.2811 70.8949 32.4756 73.321 32.3844 74.4574V77.3581C32.2872 78.3709 30.5758 80.1022 29.6922 80.9962C29.5923 81.0972 29.5031 81.1874 29.4279 81.2647C27.5876 83.159 25.5889 83.4014 22.8616 83.1597C20.5515 82.9549 17.5591 82.1849 15.9954 80.3484C14.4943 78.5865 14.5155 75.856 14.7377 73.6863C15.0477 70.656 16.3771 67.8956 18.1484 65.4451C19.1859 64.0099 22.0247 60.6682 24.192 61.3992C24.5117 61.5072 24.7565 61.7935 24.9752 62.0488C25.0153 62.0958 25.0546 62.1417 25.0933 62.1856C25.2702 62.4151 25.4454 62.6457 25.6195 62.8776C25.7275 63.1824 25.9218 63.2722 26.2019 63.1476C26.4561 63.4997 26.7451 63.8229 27.0339 64.1454C27.6082 64.7876 28.1807 65.4273 28.4715 66.2879C28.7477 67.1057 29.3213 67.9077 29.8779 68.6868C30.1934 69.1278 30.5034 69.5614 30.751 69.9862Z" fill="#EEA734"/>
<path fill-rule="evenodd" clip-rule="evenodd" d="M126.879 237.074C128.456 236.457 130.4 236.745 132.054 236.775C134.13 236.812 136.211 236.97 138.281 237.131C142.256 237.443 146.21 237.312 150.189 237.683C152.164 237.868 154.14 238.038 156.117 238.206C157.847 238.354 159.857 238.813 161.585 238.482C162.298 238.346 164.223 237.675 163.866 236.63C163.591 235.824 161.424 235.327 160.718 235.098C159.057 234.558 157.342 234.171 155.663 233.69C154.801 233.443 153.942 233.177 153.034 233.263C152.263 233.336 151.451 233.911 150.67 233.844C149.516 233.747 148.921 232.297 148.074 231.657C146.725 230.639 145.726 231.183 144.692 232.305C143.927 233.135 143.199 234.391 141.945 234.465C140.349 234.559 140.039 233.191 140.743 232.031C141.391 230.963 143.157 229.867 143.252 228.535C143.312 227.693 141.965 225.44 141.19 225.12C139.887 224.581 138.045 226.007 136.866 226.445C134.808 227.209 132.708 227.886 130.624 228.576C129.199 229.048 127.084 229.09 126.815 230.76C126.478 232.851 126.888 234.974 126.879 237.074ZM45.3165 204.93C45.7309 204.012 46.1659 203.49 45.3377 202.639C44.8745 202.162 44.2212 201.928 43.7653 201.433C43.0802 200.691 42.0069 198.66 43.4752 198.149C44.8787 197.66 46.0611 199.613 47.1905 200.043C48.624 200.587 49.5121 199.674 49.7173 198.304C49.9806 196.544 49.6908 194.705 49.9012 192.923C50.1066 191.176 50.7168 189.726 51.1849 188.054C51.5025 186.92 51.8908 185.778 50.4507 185.526C49.1301 185.296 47.5984 185.844 46.2593 185.918C44.1707 186.033 42.057 186.138 39.9858 186.451C37.6733 186.801 37.7154 189.166 37.1349 191.099C35.7271 195.786 33.8395 200.384 32.9605 205.216C32.5815 207.299 33.586 208.726 34.7555 210.364C36.2193 212.415 37.7423 214.461 39.4004 216.361C40.5075 217.63 41.7551 218.812 43.3672 219.395C45.1936 220.056 45.8915 219.322 45.4704 217.522C44.9139 215.146 44.0745 212.85 44.1735 210.375C44.2097 209.474 44.4716 208.506 43.8217 207.751C43.371 207.228 42.5989 207.052 42.0107 206.734C41.0411 206.209 39.539 204.519 41.428 204.155C42.7111 203.908 44.0746 204.771 45.3165 204.93ZM88.9419 111.846C90.0947 113.133 91.3477 114.365 92.4406 115.702C93.0672 116.469 93.5112 117.39 94.1837 118.117C95.6566 119.709 97.1242 117.945 98.4285 116.914C103.558 112.859 108.385 108.464 113.272 104.124C115.601 102.056 118.078 100.148 120.369 98.041C122.691 95.9064 124.623 93.4075 126.798 91.133C127.842 90.0408 129.093 88.9573 129.737 87.5621C130.287 86.3724 130.409 85.0782 131.036 83.9018C132.121 81.8644 134.111 79.4992 133.655 77.0352C132.311 78.444 130.073 83.4922 127.728 81.1246C126.054 79.4348 127.764 76.937 127.689 74.9668C126.1 75.6411 126.513 78.375 124.819 78.8588C123.903 79.1207 123.119 78.2911 122.692 77.5639C121.953 76.3066 122.224 74.9909 122.56 73.657C122.788 72.748 124.248 69.7504 122.804 69.3805C121.554 69.0598 120.505 71.3601 120.091 72.1751C119.331 73.6699 118.743 75.2155 117.909 76.6779C116.471 79.199 114.814 81.6077 113.234 84.0421C109.981 89.0555 106.271 93.7614 102.455 98.3568C98.379 103.265 93.9671 107.893 88.9419 111.846ZM125.08 127.792C124.916 132.209 121.121 135.558 117.838 138.013C113.642 141.152 109.771 144.718 104.767 146.504C102.84 147.192 100.434 146.994 99.6624 149.162C99.3608 150.01 99.6345 150.322 99.9616 151.175C100.473 152.51 100.78 153.958 101.023 155.363C101.849 160.144 101.046 165.013 98.1732 168.994C96.646 171.11 94.6946 172.909 92.6771 174.549C90.6644 176.185 88.7608 178.093 86.5419 179.447C81.8096 182.333 76.5524 183.991 71.0957 184.788C68.2576 185.204 65.408 185.573 62.5417 185.72C61.0553 185.796 59.5661 185.81 58.079 185.744C57.4145 185.715 54.9435 185.154 54.4632 185.534C54.0937 185.828 53.9289 187.602 53.8551 188.092C53.698 189.127 53.5744 190.148 53.3605 191.174C52.9311 193.234 52.3526 195.564 52.9855 197.643C53.1687 198.244 53.317 198.733 53.8736 198.935C54.2264 199.063 54.8515 198.838 55.2081 198.801C56.0151 198.718 56.7768 198.686 57.5882 198.772C60.2515 199.054 62.8667 199.734 65.5581 199.549C71.2963 199.154 77.04 198.75 82.7255 197.852C85.4912 197.415 88.1447 196.589 90.8643 195.951C93.4565 195.342 96.0473 194.728 98.4668 193.585C103.207 191.346 107.588 188.384 111.501 184.914C115.679 181.209 118.444 176.818 121.058 171.918C123.354 167.613 125.289 163.256 125.189 158.294C125.125 155.154 124.675 151.263 126.491 148.493C127.32 147.228 128.993 146.055 130.552 146.724C133.381 147.939 130.708 150.343 129.63 151.66C128.075 153.558 128.284 156.448 128.123 158.769C127.932 161.507 127.317 163.91 126.717 166.558C126.13 169.15 127.314 172.225 127.431 174.87C127.558 177.737 127.475 180.607 127.443 183.476C127.379 189.182 127.644 194.872 127.625 200.576C127.614 203.535 127.69 206.508 127.503 209.463C127.332 212.157 126.78 214.734 126.297 217.379C125.823 219.976 125.132 223.085 125.292 225.724C131.775 223.256 138.085 220.342 144.667 218.137C142.614 216.347 142.523 213.817 142.357 211.293C142.139 207.964 141.591 204.663 141.352 201.334C140.879 194.758 141.012 187.842 141.571 181.274C142.172 174.223 143.237 167.195 143.456 160.115C143.562 156.704 143.298 153.284 142.742 149.918C142.274 147.082 141.868 143.514 140.389 141.001C138.976 138.6 136.378 137.075 134.211 135.44C131.041 133.049 128.105 130.36 125.08 127.792ZM125.473 35.5667C126.284 36.6641 127.201 37.6769 128.172 38.6357C129.173 39.6251 129.6 39.4064 130.798 38.892C133.18 37.8681 133.134 36.684 131.804 34.6316C128.72 29.8707 127.55 24.2008 124.286 19.5374C121.07 14.9424 116.393 11.2299 111.482 8.58037C106.212 5.7371 100.502 4.83239 94.5619 4.91723C91.5264 4.9607 88.4717 5.17018 85.4553 5.51031C82.5208 5.84092 79.9108 6.80386 77.0703 7.53092C75.6403 7.89678 74.1657 8.20037 72.7754 8.70317C71.5557 9.14412 70.459 9.82517 69.2268 10.2372C66.5291 11.1386 63.8143 12.146 61.3802 13.6202C59.0005 15.0618 56.8565 16.5993 54.6951 18.369C52.4568 20.2019 50.5127 22.332 48.0922 23.9413C45.8887 25.4065 44.1362 27.3805 42.1382 29.0975C40.0506 30.8918 38.1253 33.0901 36.5592 35.3574C35.0278 37.5741 34.4452 40.4425 33.5201 42.9424C32.4433 45.8522 31.3751 48.9627 30.9694 52.0477C30.2136 57.7963 31.9101 64.5155 34.0673 69.8354C36.2011 75.0971 39.6591 79.4874 43.7851 83.3397C45.7964 85.2186 47.9912 86.9237 50.4504 88.1799C52.554 89.2547 55.297 91.1869 57.5865 89.8367C58.5136 89.2899 59.2662 88.6543 60.3379 88.4081C61.5094 88.1392 62.657 88.2493 63.6026 87.3904C64.4064 86.6604 64.7909 85.7793 65.8461 85.3387C67.0975 84.816 68.5773 84.7209 69.9171 84.7251C72.9258 84.7352 75.9363 85.4882 78.8078 86.3233C81.4394 87.0885 83.6415 88.2426 86.4371 87.5433C88.5145 87.0237 91.8465 85.6421 92.2943 83.2606C92.6945 81.132 91.1499 78.3802 90.3722 76.4755C89.2971 73.8433 88.3233 71.2539 87.648 68.4865C87.1127 66.2938 86.2724 62.7856 87.7832 60.7813C89.2679 58.8122 92.7001 58.8359 94.8326 59.3311C96.2302 59.6557 97.5149 60.3094 98.9133 60.6389C100.338 60.9746 101.812 61.1432 103.265 61.3079C108.3 61.8773 115.464 60.5898 115.196 54.1551C114.958 48.4201 111.797 42.6711 113.648 36.9291C114.402 34.5887 115.943 31.882 118.509 31.2641C120.543 30.7741 123.294 31.2878 125.089 32.3521C126.53 33.2064 127.957 34.9955 125.473 35.5667ZM24.3501 61.1829C19.2744 62.173 15.9174 67.5235 14.9871 72.2681C14.5654 74.4179 14.4167 76.9785 15.232 79.0587C16.1716 81.4569 18.8279 82.4578 21.1718 82.9607C23.851 83.5357 26.2252 83.3111 28.3493 81.4538C29.283 80.6367 30.074 79.6852 30.7451 78.6456C31.4312 77.5824 32.3855 76.8078 31.6955 75.6195C29.9852 72.6752 28.5259 69.7828 27.3996 66.5438C26.897 65.0985 26.4502 63.6863 26.1166 62.1977C25.8519 61.0157 25.7237 60.2944 24.3501 61.1829ZM68.8061 93.2999C67.824 94.2458 66.6956 94.9995 65.4279 95.508C64.0372 96.0656 63.6151 95.7977 63.6841 97.4064C63.7603 99.1826 63.7732 100.604 62.9635 102.257C62.5846 103.031 61.1845 104.075 61.4488 104.945C61.8285 106.195 65.7166 107.458 66.8509 107.895C69.5647 108.94 72.7308 108.961 75.2923 107.484C78.2676 105.769 78.5309 102.658 77.4102 99.6482C77.2907 99.3271 76.8558 98.7845 76.9627 98.4338C77.1591 97.7912 77.9674 97.8839 78.4313 98.1294C79.4385 98.6623 79.8593 100.283 80.0762 101.294C80.6554 103.996 79.5914 106.922 77.5694 108.784C76.5416 109.729 75.2565 110.361 73.9456 110.817C73.2017 111.076 72.4208 111.28 71.6351 111.359C71.0002 111.423 70.1985 111.223 69.5922 111.404C68.5237 111.722 68.476 113.04 68.2088 114.003C67.7317 115.725 67.5325 117.589 67.4698 119.371C67.3684 122.252 67.7115 125.923 69.3689 128.365C73.2358 134.065 80.7146 136.043 86.5538 138.976C89.6576 140.535 92.5357 142.493 95.2992 144.587C95.5723 144.794 95.9808 145.2 96.3085 145.361C97.4164 145.906 96.4489 145.707 97.158 145.347C97.7041 145.07 98.1714 144.468 98.7356 144.154C100.035 143.431 101.494 143.04 102.816 142.357C105.889 140.768 108.607 138.796 111.335 136.691C114.129 134.534 116.96 132.565 119.509 130.11C120.584 129.075 121.794 128.222 122.885 127.231C123.983 126.233 122.578 125.819 121.647 125.085C118.482 122.584 115.355 120.005 111.975 117.795C110.847 117.058 109.852 116.063 108.676 115.412C107.447 114.731 106.718 115.341 105.75 116.206C104.692 117.152 103.684 118.079 102.507 118.888C100.952 119.957 99.1445 120.471 97.5815 121.489C98.5849 122.54 101.032 122.891 101.387 124.482C101.747 126.095 99.3455 127.353 98.223 127.976C96.2413 129.076 94.0552 129.743 91.8468 130.22C90.0093 130.617 87.2851 130.02 85.8126 131.407C85.3926 130.518 84.9991 130.055 85.69 129.205C86.3803 128.357 87.6108 128.211 88.5849 127.885C91.2154 127.003 93.8065 125.829 96.3521 124.728C96.0142 123.938 95.1697 123.396 94.5261 122.882C93.607 122.146 92.8349 121.332 92.0868 120.418C90.6595 118.674 89.3796 116.814 88.0203 115.019C87.4311 114.24 86.8933 113.462 85.8168 113.894C84.8664 114.274 83.9389 115.261 83.0258 115.772C80.9602 116.929 79.1533 118.038 76.8798 118.774C75.9638 119.07 72.2126 119.915 73.2104 117.622C73.5061 116.942 74.4945 116.662 75.1032 116.365C76.2282 115.815 77.3496 115.255 78.4334 114.627C80.6599 113.339 82.6235 111.674 84.7065 110.175C87.0044 108.521 89.3417 106.916 91.4992 105.079C89.3525 103.657 86.971 102.615 84.7511 101.315C82.5072 100 80.2469 98.8117 77.926 97.6439C76.0781 96.714 74.1998 95.7225 72.5149 94.521C71.8451 94.0428 69.5406 92.0569 68.8061 93.2999ZM136.306 47.0506C136.024 47.1217 135.744 47.2025 135.467 47.2923C137.349 50.1698 135.271 53.7319 135.86 56.8451C137.598 55.8177 137.825 51.8213 140.463 52.56C143.305 53.3561 141.891 56.8531 142.751 58.8533C144.094 57.6796 145.661 58.7767 146.215 60.1691C146.815 61.6778 145.983 63.0705 146.263 64.5636C146.552 66.1085 147.416 65.0947 147.894 64.1836C148.504 63.0221 149.037 61.4521 148.812 60.1234C148.539 58.5078 147.454 57.0053 146.782 55.5377C146.114 54.0795 145.482 52.5913 144.515 51.2975C142.685 48.8477 139.506 46.6466 136.306 47.0506ZM154.506 81.5551C153.277 78.4886 151.459 75.6804 150.297 72.5895C149.958 71.6857 149.768 70.2449 148.869 69.688C148.279 69.322 147.493 69.5418 146.842 69.345C146.193 69.1489 145.509 68.6815 145.043 68.1992C144.192 67.317 143.916 66.1064 142.911 65.3381C141.615 64.3466 140.614 63.9663 139.997 62.3095C139.513 61.0084 139.512 60.8175 138.057 61.108C136.468 61.4249 135.178 61.0366 134.082 59.7957C132.226 57.6946 132.021 54.7346 132.932 52.1985C133.357 51.0123 134.099 49.6324 133.483 48.3908C132.911 47.237 131.522 46.4088 130.642 45.4893C128.418 43.1653 126.677 40.4456 124.591 38.007C124.092 37.4237 123.581 36.8417 123.197 36.173C122.952 35.7481 122.808 35.0175 122.241 34.8973C121.266 34.6904 119.905 36.3764 119.415 36.9904C115.824 41.4845 118.393 47.6054 118.83 52.6718C119.053 55.2518 119.553 58.3448 118.409 60.7743C117.331 63.0635 114.602 64.2062 112.302 64.8436C109.2 65.7035 105.869 65.6655 102.712 65.1434C101.059 64.87 99.4723 64.4034 97.9071 63.812C96.3061 63.2067 94.6407 62.1657 93.0087 63.2638C90.9023 64.6816 91.5532 67.526 92.0157 69.5989C92.7715 72.9851 94.0911 76.1436 95.2585 79.3969C96.2389 82.1291 97.0326 85.5568 94.9715 88.0016C92.9129 90.4434 89.4988 91.9716 86.3211 91.8448C79.7332 91.5822 73.7196 86.6702 66.9874 88.6794C68.2524 89.2021 69.5894 89.5097 70.8254 90.1083C72.3174 90.8307 73.6983 91.7909 75.1468 92.5947C77.927 94.1368 80.7171 95.657 83.4343 97.3096C85.8896 98.8023 88.2108 100.438 90.554 102.092C93.4739 104.154 95.0119 101.871 96.8849 99.6437C100.974 94.7829 104.867 89.6354 108.582 84.4841C111.813 80.006 114.811 75.3301 117.147 70.3271C117.983 68.537 119.39 65.5004 121.836 65.8536C124.007 66.167 125.273 68.7867 126.396 70.3902C127.179 69.8291 127.851 69.0786 128.908 69.3875C129.785 69.6431 130.392 70.5431 130.78 71.3107C131.047 71.8383 131.228 73.6162 131.675 73.8837C131.992 74.0742 133.206 73.665 133.746 73.79C135.598 74.2177 136.189 76.5971 136.17 78.2482C136.144 80.5246 135.193 82.8019 134.414 84.9097C132.667 89.6347 129.674 93.3274 126.375 97.0609C123.026 100.85 119.521 104.284 115.744 107.646C114.812 108.476 113.889 109.315 112.98 110.171C112.235 110.872 111.055 111.601 110.472 112.425C109.393 113.95 112.28 114.642 113.354 115.2C117.977 117.6 122.237 120.762 126.308 123.985C130.507 127.31 134.728 130.647 138.762 134.17C142.709 137.616 146.436 141.289 150.592 144.494C154.862 147.786 159.335 150.826 163.723 153.959C168.114 157.094 172.388 160.394 176.774 163.534C181.061 166.602 185.663 169.233 190.172 171.957C192.53 173.382 194.902 174.787 197.271 176.194C199.187 177.332 201.267 179.1 203.539 179.244C205.585 179.373 207.527 180.126 208.75 177.901C209.679 176.212 209.294 173.888 208.481 172.246C207.489 170.243 205.936 168.402 204.689 166.548C203.254 164.416 201.923 162.223 200.508 160.081C199.15 158.026 197.642 156.13 196.127 154.194C194.592 152.231 193.427 150.019 192.059 147.941C189.134 143.498 186.127 139.135 183.355 134.593C176.996 124.176 171.301 113.421 165.859 102.505C165.38 101.544 154.193 81.7261 154.506 81.5551ZM145.553 145.603C148.97 157.415 146.999 169.427 146.299 181.444C145.944 187.52 145.89 193.634 145.733 199.719C145.657 202.676 145.662 205.636 145.785 208.593C145.847 210.08 145.956 211.562 146.061 213.046C146.155 214.359 145.803 215.81 145.968 217.077C146.181 218.699 149.401 219.017 148.412 221.099C147.748 222.496 145.423 222.709 144.178 223.298C144.732 223.939 145.598 224.899 146.521 224.959C147.353 225.013 147.996 224.292 148.741 224.019C149.403 223.777 150.314 223.542 150.732 224.315C151.17 225.124 150.253 226.023 149.891 226.65C151.123 226.889 151.976 226.153 153.088 226.22C154.258 226.291 154.311 227.443 155.08 228.109C155.959 228.87 157.494 229.034 158.578 229.355C159.839 229.727 161.106 230.19 162.254 230.837C164.307 231.993 166.071 234.179 166.83 236.415C167.616 238.734 166.388 240.74 164.559 242.162C163.878 242.692 162.901 243.308 161.997 243.022C160.964 242.695 160.803 241.855 159.544 241.917C158.414 241.974 157.341 242.425 156.205 242.483C154.534 242.568 152.866 242.264 151.194 242.328C144.446 242.587 137.698 242.645 130.962 241.996C129.219 241.828 127.511 241.691 125.793 241.636C124.457 241.593 124.345 240.597 124.118 239.346C123.572 236.325 124.781 233.351 124.182 230.415C124.222 230.609 123.276 230.105 123.162 230.009C122.468 229.425 122.236 228.594 122.029 227.731C121.478 225.434 121.484 223.093 121.654 220.749C122.041 215.431 123.031 210.161 122.95 204.815C122.909 202.12 122.99 199.431 122.991 196.737C122.992 194.263 123.216 191.82 123.237 189.363C123.282 183.975 123.85 178.648 124.008 173.266C122.886 174.357 122.291 175.878 121.579 177.239C120.703 178.913 119.726 180.57 118.655 182.127C116.446 185.344 113.482 187.962 110.41 190.335C104.55 194.864 98.1826 198.371 91.0022 200.292C83.2291 202.371 75.3679 203.775 67.3545 204.563C65.5003 204.746 63.6256 204.845 61.7675 204.664C60.5507 204.546 58.5728 203.563 57.4165 204.062C56.1025 204.629 55.8382 205.992 54.1153 205.61C53.4577 205.464 52.9816 205.025 52.4059 204.728C51.5593 204.293 51.5255 204.594 50.7172 204.649C49.8158 204.711 49.2757 204.261 48.49 204.987C47.823 205.603 47.8878 206.035 48.4969 206.611C49.3533 207.422 50.7241 207.558 51.5812 208.405C52.4153 209.228 52.2659 210.24 50.9777 210.252C49.6814 210.265 48.5293 209.342 47.2626 209.222C47.5326 212.969 48.6603 217.156 47.41 220.832C46.8297 222.538 45.5854 223.637 43.7294 223.625C40.6235 223.605 37.8993 220.748 36.0287 218.522C34.9947 217.292 34.1564 215.91 33.1583 214.649C32.1375 213.36 31.0429 212.065 30.4585 210.506C29.8368 208.848 30.0182 207.184 30.3658 205.482C30.7959 203.375 31.1958 201.246 31.7157 199.16C32.724 195.113 34.752 191.419 35.7759 187.384C36.1632 185.858 36.1583 184.067 37.1359 182.758C38.1706 181.372 39.7807 181.283 41.3775 181.372C43.354 181.482 45.329 181.7 47.295 181.924C48.5366 182.065 51.257 182.96 52.2673 182.197C52.6152 181.935 52.6159 181.246 53.0227 181.009C53.4149 180.779 54.048 180.944 54.4768 180.976C56.5995 181.133 58.7407 181.325 60.8676 181.387C68.7734 181.618 77.1159 180.386 84.1744 176.713C87.4499 175.009 89.9452 172.326 92.5778 169.791C95.1665 167.3 97.4227 164.618 98.1192 161C98.7551 157.697 98.5145 153.748 97.4582 150.551C96.4294 147.437 92.7777 145.551 90.1201 144.015C86.4346 141.886 82.5221 140.121 78.5515 138.592C77.9211 138.35 77.1549 138.041 76.4618 138.165C75.6117 138.317 75.0409 139.054 74.2677 139.379C73.3486 139.765 72.2213 139.767 71.2513 139.993C70.311 140.212 69.3943 140.513 68.4366 140.657C65.4202 141.112 61.1814 140.749 58.6884 138.822C54.6136 135.673 57.0756 131.216 58.3847 127.383C57.0007 127.336 55.8483 127.66 54.5273 127.068C53.2111 126.477 52.182 125.433 51.5819 124.124C50.4904 121.742 51.1208 119.006 51.443 116.523C51.5885 115.4 51.7547 114.286 52.183 113.231C52.5149 112.415 53.0596 111.636 53.2609 110.772C53.4824 109.821 53.1951 109.766 52.4018 109.311C51.1783 108.609 50.2978 107.803 49.549 106.572C48.0825 104.16 48.0463 101.529 49.2478 98.9921C49.7343 97.9657 50.8948 96.5542 50.7628 95.3554C50.6493 94.3238 49.4818 93.5204 48.7943 92.8451C46.6713 90.7593 44.4141 88.8337 42.0598 87.0143C40.9596 86.1638 39.7476 85.392 38.7477 84.4259C38.0149 83.7182 37.2707 82.1785 36.2687 81.8062C35.2657 81.4339 34.5977 82.5539 33.8991 83.1544C32.81 84.0902 31.7662 85.167 30.5793 85.9782C28.4507 87.4333 25.8115 87.1609 23.4073 86.6963C20.8963 86.2105 18.5674 85.3555 16.4262 83.9446C15.5757 83.3839 14.5821 82.2454 13.5348 82.1541C12.4162 82.057 11.2007 83.169 10.4011 83.8366C8.31388 85.5798 7.68733 88.2872 6.47151 90.629C5.11394 93.2442 4.5372 95.9586 4.90672 98.8984C5.23897 101.543 6.25767 103.542 7.77301 105.678C8.08645 106.12 8.82026 106.955 8.28392 107.443C7.62777 108.041 6.28344 106.842 5.84287 106.455C1.46682 102.606 -1.02019 96.807 0.400411 91.0017C1.16278 87.8846 2.65443 85.0006 4.38674 82.3185C5.12334 81.1776 5.84183 80.037 7.12278 79.455C8.581 78.793 10.2332 78.8717 11.7907 78.7129C10.7135 73.4393 10.3763 67.7008 13.6867 63.1046C16.227 59.5777 21.4295 56.4916 25.5523 59.3517C25.3834 55.4639 24.8293 51.7718 25.864 47.9436C26.3276 46.2284 26.9629 44.5591 27.7437 42.9623C28.5085 41.3978 29.5648 40.0709 30.1826 38.4424C32.6205 32.0181 37.2982 26.2796 42.2942 21.6689C47.3445 17.0082 52.3001 11.3223 58.6616 8.40651C65.2983 5.3641 72.0572 2.63012 79.2533 1.24776C86.722 -0.187161 94.399 -0.481695 101.923 0.876848C108.519 2.06787 114.623 6.07239 119.614 10.3896C125.309 15.3159 128.985 21.2548 131.894 28.1342C132.532 29.6454 133.148 31.1694 133.932 32.6137C134.801 34.2161 135.918 35.7063 136.557 37.4258C137.128 38.9592 137.224 40.6229 136.208 41.993C135.494 42.9563 134.029 43.1737 133.405 44.0548C133.09 44.4992 133.122 44.922 133.814 45.0543C134.53 45.1909 134.871 44.393 135.385 44.0729C136.665 43.2761 138.472 43.9552 139.766 44.4076C142.835 45.4806 145.238 47.408 147.075 50.0792C148.832 52.6359 150 55.5405 151.16 58.3995C151.893 60.2032 152.589 61.995 152.993 63.906C153.144 64.6249 153.356 66.5738 152.22 65.7198C151.759 65.3736 151.101 68.001 151.225 68.4193C151.657 69.8744 153.198 71.2386 154.104 72.4168C156.236 75.1862 157.664 78.2887 159.168 81.421C162.426 88.204 166.053 94.7888 169.538 101.454C176.636 115.028 184.392 128.081 192.528 141.055C196.559 147.484 200.715 153.802 205.023 160.047C206.925 162.803 208.832 165.561 210.692 168.345C212.273 170.711 213.833 173.345 213.426 176.298C213.053 179.002 211.447 181.173 208.85 182.057C207.458 182.531 205.806 183.077 204.316 182.932C202.687 182.773 201.25 181.683 199.892 180.865C193.653 177.105 187.412 173.348 181.169 169.595C174.186 165.397 167.8 160.413 161.139 155.746C157.749 153.371 154.253 151.231 150.722 149.081C149.926 148.597 146.318 145.129 145.553 145.603Z" fill="#3A3A3A"/>
<path fill-rule="evenodd" clip-rule="evenodd" d="M85.0938 157.553C83.3883 160.064 81.5947 162.424 79.1941 164.329C76.6649 166.336 74.0201 167.962 71.1963 169.52C66.2164 172.266 59.541 174.699 53.7569 173.454C52.112 173.1 49.4805 171.66 50.9105 169.605C51.6293 168.573 53.1711 168.842 54.2626 168.899C56.021 168.991 57.5587 169.091 59.2436 168.499C62.3394 167.412 65.4564 166.386 68.4795 165.106C71.4074 163.866 73.9752 162.165 76.6614 160.495C79.1808 158.928 81.1026 157.052 83.3159 155.158C83.9219 154.639 84.9639 153.732 85.5372 154.74C85.9516 155.469 85.3209 156.84 85.0938 157.553Z" fill="#3A3A3A"/>
<path fill-rule="evenodd" clip-rule="evenodd" d="M154.01 36.9409C153.82 38.0286 153.304 40.1928 151.774 39.8971C149.822 39.5202 150.783 35.6983 150.754 34.401C150.624 28.7478 148.781 23.312 146.052 18.4105C144.694 15.9739 143.023 13.7205 141.789 11.214C141.55 10.727 140.823 9.51914 141.351 8.99081C141.985 8.35632 143.201 9.31379 143.649 9.76658C145.377 11.5175 146.753 14.1425 148.087 16.2028C149.869 18.9533 151.442 21.8586 152.572 24.9429C153.936 28.6684 154.702 32.9894 154.01 36.9409Z" fill="#3A3A3A"/>
<path fill-rule="evenodd" clip-rule="evenodd" d="M157.663 18.8628C157.845 19.8432 158.737 22.5106 157.146 22.7471C155.343 23.0153 154.782 18.571 154.281 17.3935C154.017 16.7727 152.61 14.0389 153.344 13.4438C154.871 12.2049 157.301 18.0741 157.663 18.8628Z" fill="#3A3A3A"/>
<path fill-rule="evenodd" clip-rule="evenodd" d="M72.7708 151.147C71.0587 152.707 69.0711 152.616 66.9101 152.467C65.8127 152.392 63.2713 151.742 65.0374 150.381C65.96 149.67 73.1981 149.181 72.7708 151.147Z" fill="#3A3A3A"/>
<path fill-rule="evenodd" clip-rule="evenodd" d="M206.177 179.709C206.299 179.467 207.326 178.305 207.548 178.775C207.757 179.218 206.449 179.696 206.177 179.709Z" fill="#3A3A3A"/>
<path fill-rule="evenodd" clip-rule="evenodd" d="M70.0028 93.4738C69.7921 93.9081 68.9127 93.5289 68.6097 93.5947C69.0213 92.7132 69.5107 92.902 70.0028 93.4738Z" fill="#3A3A3A"/>
<path fill-rule="evenodd" clip-rule="evenodd" d="M136.175 47.3652C136.083 47.7135 135.992 48.0618 135.901 48.4101C135.76 48.1492 135.619 47.8883 135.478 47.6271C135.71 47.5401 135.943 47.4527 136.175 47.3652Z" fill="#3A3A3A"/>
<path fill-rule="evenodd" clip-rule="evenodd" d="M137.856 113.166C140.053 113.388 142.258 113.5 144.464 113.568C146.326 113.625 147.091 113.273 147.329 111.337C147.61 109.043 147.707 106.728 147.988 104.432C148.116 103.39 149.128 101.306 147.909 100.748C146.888 100.28 145.296 100.95 144.226 101.029C143.035 101.117 141.237 100.753 140.184 101.46C139.058 102.215 139.303 104.859 139.111 106.1C138.745 108.465 138.304 110.815 137.856 113.166ZM136.808 102.022C134.816 102.173 132.818 102.292 130.832 102.504C129.949 102.598 128.16 103.035 127.415 102.392C125.666 100.883 132.201 100.353 132.943 100.234C134.193 100.034 136.331 100.3 137.132 99.1206C137.924 97.9538 137.724 95.9934 137.929 94.639C138.237 92.6005 138.59 90.5649 138.795 88.5132C138.864 87.8236 138.766 85.5456 139.494 85.2071C141.168 84.429 140.642 92.4466 140.614 93.0484C140.567 94.0831 140.515 95.1227 140.371 96.1487C140.29 96.7272 140.004 97.5095 140.18 98.0904C140.685 99.7562 143.552 98.7956 144.858 98.6626C146.322 98.5135 148.581 99.0805 149.066 97.2747C149.675 95.0054 149.586 92.4281 149.812 90.0933C149.874 89.4476 150.037 84.6254 151.227 84.9991C152.556 85.4167 152.037 89.4462 152.025 90.4837C152.012 91.6546 152.016 92.8262 151.937 93.995C151.866 95.0451 151.57 96.3319 151.789 97.3722C152.173 99.1961 154.335 98.2262 154.963 99.6771C155.559 101.056 152.308 99.9749 151.701 100.449C150.795 101.156 151.013 104.111 150.883 105.146C150.599 107.419 150.053 109.779 149.876 112.046C149.736 113.835 151.174 113.597 152.637 113.468C153.893 113.357 155.271 113.058 156.529 113.226C157.54 113.36 158.952 114.291 157.481 114.911C155.18 115.88 150.496 113.9 149.34 116.843C149.122 117.399 148.107 123.838 146.832 120.659C146.3 119.331 147.604 117.246 146.213 116.228C145.731 115.875 145.012 115.937 144.452 115.898C143.074 115.802 141.687 115.769 140.307 115.741C138.93 115.712 137.693 115.435 137.161 116.943C136.747 118.118 136.793 119.433 136.462 120.635C136.214 121.537 135.399 123.114 134.553 121.64C133.998 120.671 134.423 118.979 134.533 117.926C134.588 117.399 134.902 116.307 134.502 115.864C134.072 115.389 132.923 115.646 132.38 115.689C130.812 115.814 127.891 116.568 126.69 115.146C125.686 113.956 127.774 113.933 128.595 113.853C129.44 113.77 130.286 113.693 131.131 113.605C132.061 113.506 133.293 113.637 134.169 113.346C135.639 112.856 135.534 110.857 135.631 109.56C135.82 107.027 136.389 104.525 136.808 102.022Z" fill="#3A3A3A"/>
<path fill-rule="evenodd" clip-rule="evenodd" d="M162.643 107.432C162.525 108.895 162.366 110.534 161.894 111.924C161.537 112.975 160.815 113.294 160.569 111.956C160.413 111.108 161.45 106.331 162.643 107.432Z" fill="#3A3A3A"/>
<path fill-rule="evenodd" clip-rule="evenodd" d="M69.8036 97.8028C69.2171 97.3817 66.4396 95.167 68.447 95.0796C69.472 95.0347 71.6804 96.7207 71.7438 97.6561C71.7598 97.8923 71.2548 98.0145 71.2823 98.243C71.3346 98.678 71.9785 98.8838 72.1861 99.2296C72.6434 99.9924 72.4536 101.499 71.8629 102.224C70.5158 103.878 69.0199 101.079 70.0627 100.529C69.8304 100.652 66.7119 99.0666 66.5949 98.7086C65.9534 96.7468 69.6458 98.5951 69.8036 97.8028Z" fill="#3A3A3A"/>
<path fill-rule="evenodd" clip-rule="evenodd" d="M74.6989 105.522C73.9867 105.545 72.556 105.495 72.0224 104.987C71.0305 104.041 72.9652 103.916 73.5311 103.475C74.3245 102.859 74.4802 100.852 75.7256 102.093C76.9609 103.325 75.8747 104.758 74.6989 105.522Z" fill="#3A3A3A"/>
<path fill-rule="evenodd" clip-rule="evenodd" d="M64.4304 100.312C65.7183 100.123 68.5835 102.899 67.1932 103.084C66.2731 103.206 64.6313 101.054 64.4304 100.312Z" fill="#3A3A3A"/>
</svg>
